<?xml version="1.0" encoding="UTF-8"?>
<svg id="Layer_2" data-name="Layer 2" xmlns="http://www.w3.org/2000/svg" viewBox="0 0 184.05 41.45">
  <defs>
    <style>
      .cls-1 {
        fill: #fff;
      }
    </style>
  </defs>
  <g id="Layer_1-2" data-name="Layer 1">
    <g>
      <path class="cls-1" d="M154.42,34.42c-1.59,0-3-.4-4.23-1.19-1.24-.79-2.2-1.95-2.89-3.47-.69-1.52-1.04-3.37-1.04-5.56v-.78c0-2.18.35-4.04,1.04-5.56.69-1.52,1.65-2.68,2.89-3.47,1.23-.79,2.65-1.19,4.23-1.19,1.48,0,2.75.29,3.8.86s1.9,1.35,2.56,2.34V6.65h3.98v27.3h-3.98v-2.73c-.65.99-1.5,1.77-2.56,2.34-1.05.57-2.32.86-3.8.86M155.4,30.87c.73,0,1.42-.13,2.09-.39.66-.26,1.33-.71,2.01-1.36.44-.39.78-.85,1.01-1.39.24-.53.35-1.21.35-2.05v-3.74c0-.81-.12-1.48-.35-2.03s-.57-1.01-1.01-1.4c-.68-.68-1.35-1.14-2.01-1.38s-1.36-.37-2.09-.37c-1.01,0-1.91.22-2.69.64-.78.43-1.39,1.14-1.83,2.13s-.66,2.3-.66,3.94v.7c0,1.64.22,2.95.66,3.94.44.99,1.05,1.7,1.83,2.12.78.43,1.68.64,2.69.64h0Z"/>
      <polygon class="cls-1" points="54.78 33.95 54.78 10.55 45.77 10.55 45.77 6.65 67.96 6.65 67.96 10.55 58.95 10.55 58.95 33.95 54.78 33.95"/>
      <path class="cls-1" d="M71.09,33.95V6.65h3.94v9.99c.57-1.07,1.36-1.91,2.38-2.52,1.01-.61,2.26-.92,3.75-.92,2.26,0,3.94.64,5.03,1.93,1.09,1.29,1.64,2.97,1.64,5.05v13.77h-3.94v-13.46c0-1.2-.33-2.13-1-2.81s-1.58-1.01-2.75-1.01c-.81,0-1.53.14-2.16.41-.64.27-1.19.7-1.66,1.27-.42.47-.74.99-.96,1.58s-.33,1.3-.33,2.16v11.86h-3.94Z"/>
      <path class="cls-1" d="M104.63,13.66c-.8-.3-1.73-.46-2.78-.46-1.38,0-2.6.3-3.67.91-1.07.61-1.86,1.48-2.38,2.6v-3.04h-3.98v20.28h3.98v-11.62c0-.96.11-1.75.33-2.36s.57-1.16,1.03-1.66c.44-.49.98-.89,1.6-1.19s1.33-.45,2.11-.45c.93,0,1.68.25,2.26.74l1.49-3.75h.01Z"/>
      <path class="cls-1" d="M117.12,30.19c-.84.51-1.92.76-3.22.76-1.74,0-3.1-.59-4.07-1.77-.95-1.15-1.43-2.74-1.46-4.78h14.47v-1.64c0-1.74-.32-3.34-.95-4.78-.64-1.44-1.63-2.6-2.98-3.47-1.35-.87-3.07-1.31-5.15-1.31-1.79,0-3.39.45-4.8,1.35-1.4.9-2.5,2.12-3.3,3.67s-1.19,3.28-1.19,5.21v.78c0,2.08.4,3.89,1.19,5.42.79,1.53,1.89,2.72,3.3,3.55,1.4.83,3.03,1.25,4.87,1.25,2.18,0,4.01-.45,5.48-1.36s2.54-2.2,3.22-3.86l-3.43-1.36c-.47,1.07-1.12,1.85-1.97,2.36h0v-.02ZM109.88,18.2c1.01-1.12,2.3-1.68,3.86-1.68,1.69,0,2.95.44,3.78,1.33.83.88,1.3,2.08,1.4,3.59h-10.46c.2-1.34.67-2.42,1.41-3.24"/>
      <path class="cls-1" d="M144.44,33.95c0-2.5-.4-4.64-1.19-6.44-.46-1.04-1.07-1.95-1.83-2.71,0-.19.01-.37.01-.56v-3.12c0-2.5-.7-4.44-2.09-5.83-1.39-1.39-3.28-2.09-5.67-2.09-2.13,0-3.87.47-5.23,1.4-1.31.91-2.19,2.02-2.65,3.35l3.35,1.33c.31-.88.83-1.56,1.56-2.03.73-.47,1.66-.7,2.81-.7,1.25,0,2.23.33,2.95.99.71.66,1.07,1.74,1.07,3.22v1.71c-1.25-.39-2.68-.58-4.29-.58s-2.96.25-4.13.76-2.07,1.23-2.71,2.16c-.64.94-.95,2.03-.95,3.27s.26,2.27.78,3.22,1.3,1.7,2.36,2.26c1.05.56,2.36.84,3.92.84,1.82,0,3.4-.44,4.72-1.33,1.29-.86,2.3-2.03,3.04-3.51.4,1.27.6,2.72.63,4.36h3.55v.03ZM136.44,29.55c-.73,1.07-1.91,1.6-3.55,1.6-1.2,0-2.1-.29-2.71-.86s-.91-1.3-.91-2.18.33-1.61.99-2.26c.66-.65,1.7-.98,3.1-.98,1.73,0,3.11.33,4.16.97-.07,1.52-.43,2.76-1.08,3.71h0Z"/>
      <path class="cls-1" d="M181.16,23.11c-.95-.42-2.05-.71-3.3-.9l-2.14-.35c-1.22-.18-2.16-.49-2.83-.94-.66-.44-1-1.04-1-1.79,0-.81.41-1.45,1.23-1.93s1.76-.72,2.83-.72,1.88.21,2.61.62c.68.39,1.2.99,1.54,1.8l3.26-1.4c-.52-1.41-1.38-2.47-2.59-3.2s-2.81-1.09-4.82-1.09c-1.4,0-2.7.24-3.88.72s-2.12,1.16-2.81,2.05c-.69.89-1.04,1.93-1.04,3.12,0,1.72.56,3.07,1.68,4.07s2.54,1.63,4.25,1.89l2.14.35c1.2.18,2.15.45,2.87.82.71.36,1.07.99,1.07,1.87,0,.94-.38,1.66-1.15,2.18s-1.83.78-3.18.78c-1.2,0-2.19-.29-2.98-.88-.8-.59-1.36-1.37-1.7-2.36l-3.57,1.54c.5,1.45,1.41,2.65,2.73,3.59,1.36.98,3.23,1.46,5.6,1.46,1.64,0,3.06-.28,4.25-.84,1.2-.56,2.13-1.33,2.81-2.3.68-.97,1.01-2.1,1.01-3.37s-.25-2.22-.74-3-1.21-1.38-2.16-1.8h.01Z"/>
      <path class="cls-1" d="M18.5,41.45h-.01c-6.18-.04-10.94-2.08-14.13-6.06C1.52,31.85.05,26.92,0,20.74v-.03c.05-6.18,1.51-11.1,4.36-14.65C7.55,2.08,12.31.04,18.49,0h.02c4.74.03,8.71,1.25,11.79,3.62,2.9,2.23,4.94,5.4,6.06,9.44l-3.52.98c-1.91-6.84-6.73-10.33-14.34-10.39-5.02.04-8.82,1.61-11.29,4.69-2.31,2.88-3.51,7.05-3.55,12.37.04,5.33,1.24,9.49,3.55,12.37,2.47,3.08,6.27,4.66,11.29,4.69,4.53-.03,7.53-1.09,10.02-3.53,2.85-2.79,2.79-6.2,1.88-8.28-.54-1.23-1.51-2.25-2.82-3.02-.33,2.33-1.07,4.22-2.22,5.65-1.53,1.9-3.7,2.94-6.44,3.09-2.08.11-4.08-.38-5.63-1.38-1.84-1.19-2.91-3.01-3.02-5.12-.11-2.06.7-3.94,2.29-5.32,1.52-1.31,3.66-2.09,6.19-2.23,1.86-.1,3.61-.02,5.22.25-.21-1.28-.65-2.3-1.29-3.03-.89-1.01-2.26-1.53-4.07-1.54h-.05c-1.46,0-3.44.4-4.7,2.28l-3.03-2.04c1.69-2.51,4.43-3.89,7.73-3.89h.07c5.52.04,8.8,3.41,9.13,9.3.19.08.37.16.55.25,2.58,1.21,4.46,3.04,5.45,5.3,1.38,3.15,1.5,8.27-2.67,12.36-3.19,3.13-7.07,4.54-12.56,4.57h-.03ZM20.23,21.26c-.42,0-.84,0-1.27.04-3.17.18-5.15,1.63-5.04,3.7.12,2.17,2.51,3.18,4.81,3.05,2.11-.11,4.87-.94,5.33-6.41-1.17-.25-2.45-.38-3.82-.38"/>
    </g>
  </g>
</svg>