<?xml version="1.0" encoding="UTF-8"?>
<svg id="Layer_2" data-name="Layer 2" xmlns="http://www.w3.org/2000/svg" viewBox="0 0 217.36 41.53">
  <defs>
    <style>
      .cls-1 {
        fill: #fff;
        fill-rule: evenodd;
      }
    </style>
  </defs>
  <g id="Layer_1-2" data-name="Layer 1">
    <path class="cls-1" d="M197.54,6.63c-3.22,0-13.38,1.11-13.38,14.08,0,13.88,10.86,14.38,13.07,14.38,1.41,0,6.24-.3,9.56-3.72,2.41-2.61,3.52-6.03,3.52-10.66.3-13.17-9.45-14.08-12.77-14.08M201.67,29.67c-.8.6-1.91,1.41-3.82,1.41h-.3c-1.91,0-3.02-.91-3.82-1.41-1.91-1.71-2.71-4.93-2.71-9.55,0-8.65,4.12-10.06,6.54-10.06h.3c2.41,0,6.54,1.41,6.54,10.06,0,4.63-.8,7.84-2.71,9.55M40.24,39.52c-2.41-.9-6.03-3.72-7.84-6.33-2.41-3.22-8.75-11.77-8.75-11.77-1.11-1.11-1.91-2.61-3.02-4.02-2.71-4.02-5.73-8.35-8.95-10.96v28.76h3.82v-14.99l3.22,4.32c1.61,2.31,3.52,4.93,4.93,6.64,1.1,1.1,3.52,4.32,4.32,4.93,3.52,3.42,8.95,5.43,14.38,5.43,2.41,0,4.63-.3,6.84-1.11v-.3c-.8.3-1.91.3-2.71.3-1.81.5-4.02-.1-6.24-.9M16.91,8.65c2.41,3.22,8.95,11.77,8.95,11.77.8,1.1,1.91,2.61,2.71,4.02,2.71,4.02,5.73,8.35,8.95,10.96V6.63h-3.82v14.99l-3.22-4.32c-1.61-2.61-3.22-4.93-4.93-6.64-.8-1.41-3.82-4.32-4.63-5.23C17.7,2.01,11.97,0,6.54,0,4.33,0,2.21.3,0,1.11v.3c.8-.3,1.91-.3,2.72-.3,2.21,0,4.12.6,6.23,1.1,2.51,1,6.03,3.82,7.95,6.44M160.83,21.32c-3.02-2.92-6.54-3.42-8.95-5.23-1.91-1.41-1.61-3.42-.8-4.63,2.21-2.92,6.84-1.71,7.84-1.41,1.41.3,1.91.6,3.22,1.41v-3.12c-5.43-1.71-13.88-3.22-17.1,2.62-1.41,2.31-1.61,6.33,1.91,8.95,3.52,2.92,9.76,4.33,10.36,6.94.5,1.41,0,2.61-.8,3.42-3.22,3.22-8.45,1.1-11.67-.3v3.42c3.52,1.71,8.15,2.01,11.97,1.11,2.71-.6,5.73-3.22,6.24-6.34.5-3.12-.3-5.13-2.21-6.84M180.45,21.32c-3.02-2.92-6.54-3.42-8.95-5.23-1.91-1.41-1.61-3.42-.8-4.63,2.21-2.61,6.54-1.41,7.64-1.11,1.41.3,1.91.6,3.22,1.41v-3.42c-5.43-1.71-13.88-3.22-17.1,2.62-1.11,2.31-1.41,6.33,2.21,8.95,3.52,2.92,9.76,4.33,10.36,6.94.5,1.41,0,2.61-.8,3.42-3.22,3.22-8.45,1.1-11.67-.3v3.42c3.52,1.71,7.84,2.01,11.97,1.11,2.71-.6,5.73-3.22,6.24-6.34.4-3.12-.4-5.13-2.31-6.84M125.43,34.6h17.1v-3.42h-11.17v-8.95h8.95v-3.22h-8.95v-8.35h11.17v-3.12h-17.1v27.05h0ZM76.45,21.32c-3.02-2.92-6.54-3.42-8.95-5.23-1.91-1.41-1.61-3.42-.8-4.63,2.21-2.61,6.54-1.41,7.64-1.11,1.41.3,1.91.6,3.22,1.41v-3.42c-5.43-1.71-13.88-3.22-17.1,2.62-1.11,2.31-1.61,6.33,2.21,8.95,3.52,2.92,9.76,4.33,10.36,6.94.5,1.41,0,2.61-.8,3.42-3.22,3.22-8.45,1.1-11.67-.3v3.42c3.52,1.71,8.15,2.01,11.97,1.11,2.71-.6,5.73-3.22,6.23-6.34.2-3.12-.4-5.13-2.31-6.84M41.05,34.6h17.1v-3.42h-11.06v-8.95h8.95v-3.22h-8.95v-8.35h11.16v-3.12h-17.1v27.05h-.1,0ZM92.54,7.24h-11.16v27.66h5.73v-10.06s8.95.6,11.67-3.22c1.91-2.31,2.21-6.33,1.41-9.25-1.41-3.72-4.43-5.13-7.64-5.13M93.65,19.61c-1.61,1.71-4.32,1.71-6.54,1.41v-10.36s4.93-1.11,6.84,1.71c1,1.51,1,5.23-.3,7.24M119.7,21.32c1.91-2.31,2.21-6.03,1.41-9.25-1.1-3.22-4.12-4.93-7.34-4.93h-11.16v27.36h5.73v-10.06h2.71l6.03,10.06h6.54l-6.54-11.27c.7-.5,2.11-1,2.61-1.91M115.07,19.61c-1.61,1.71-4.32,1.41-6.54,1.41v-10.06s4.63-1.11,6.84,1.71c.8,1.41,1.11,4.93-.3,6.94M214.14,28.56c-1.91,0-3.22,1.41-3.22,3.42s1.61,3.42,3.22,3.42,3.22-1.41,3.22-3.42-1.61-3.42-3.22-3.42M214.14,34.9c-1.61,0-3.02-1.41-3.02-3.22,0-1.71,1.41-3.22,3.02-3.22s3.02,1.41,3.02,3.22c-.3,2.01-1.61,3.22-3.02,3.22M214.95,31.98s.5-.3.5-.9-.5-1.11-1.11-1.11h-1.61v3.72h.5v-1.41h1.1c.5,0,.8.3.8.91v.6h.5c-.3-.3-.3-.6-.3-1.11s-.1-.7-.4-.7M214.14,31.68h-1.11v-1.11h1.11c.3,0,.5,0,.5.6.3.2,0,.5-.5.5"/>
  </g>
</svg>