<?xml version="1.0" encoding="UTF-8"?>
<svg id="Layer_2" data-name="Layer 2" xmlns="http://www.w3.org/2000/svg" viewBox="0 0 339.89 41.45">
  <defs>
    <style>
      .cls-1 {
        fill: #fff;
      }
    </style>
  </defs>
  <g id="Layer_1-2" data-name="Layer 1">
    <g>
      <path class="cls-1" d="M336.44,1.7c0-.94.77-1.7,1.72-1.7s1.73.76,1.73,1.7v9.68c0,.93-.77,1.69-1.73,1.69s-1.72-.76-1.72-1.69V1.7ZM331.46,5.48v9.68c0,.94.77,1.7,1.72,1.7s1.73-.76,1.73-1.7V5.48c0-.94-.77-1.7-1.73-1.7s-1.72.76-1.72,1.7M326.48,1.7v9.68c0,.93.77,1.69,1.73,1.69s1.73-.76,1.73-1.69V1.7c0-.94-.78-1.7-1.73-1.7s-1.73.76-1.73,1.7M321.51,7.28v6.19c0,.94.77,1.7,1.72,1.7s1.72-.76,1.72-1.7v-6.19c0-.94-.77-1.7-1.72-1.7s-1.72.76-1.72,1.7"/>
      <path class="cls-1" d="M211.18,5.37c-4.04,0-6.97.81-9.01,2.42-2.85,2.29-4.42,6.46-4.42,11.85s1.57,9.6,4.47,11.85c2.08,1.66,4.33,2.21,8.71,2.21h12.66v-16.82h-13.94v5.05h7.9v6.71h-5.44c-2.76,0-4.59-.55-5.69-1.7-1.28-1.36-2.04-4.33-2.04-7.86,0-6.2,2.13-8.67,7.52-8.67h11.69v-5.06h-12.41v.02ZM227.53,13.08v20.63h5.68v-16.23h1.65c2.8,0,3.65.89,3.65,3.81v1.1h5.46v-2.03c0-3.13-.42-4.57-1.69-5.72-1.31-1.19-2.88-1.57-6.35-1.57h-8.4ZM252.7,23.5c0-4.22,1.65-6.33,5.02-6.33s5.15,2.07,5.15,6.16-1.69,6.29-5.02,6.29-5.15-2.11-5.15-6.12M246.92,23.33c0,6.71,4.01,10.63,10.76,10.63s10.97-3.96,10.97-10.34c0-2.95-.76-5.32-2.36-7.34-1.77-2.28-4.68-3.46-8.4-3.46-6.71,0-10.97,4.05-10.97,10.51M285.73,13.08v16.23h-5.33c-1.7,0-2.71-1.1-2.71-2.97v-13.26h-5.67v12.71c0,2.88.72,4.92,2.16,6.27,1.44,1.27,2.8,1.65,6.1,1.65h11.14V13.08h-5.69ZM301.02,17.48h3.89c3.47,0,5.42,2.08,5.42,5.8,0,4.02-1.95,6.01-5.84,6.01h-3.47v-11.81h0ZM295.35,13.08v28.37h5.67v-7.75h5c3.43,0,5.59-.8,7.41-2.67,1.78-1.82,2.71-4.36,2.71-7.32,0-3.94-1.27-6.99-3.68-8.85-1.74-1.4-3.35-1.78-7.2-1.78,0,0-9.91,0-9.91,0Z"/>
      <path class="cls-1" d="M130.95,28.89c-.46-.28-.69-.75-.69-1.43,0-.58.19-1.04.57-1.38.38-.35.9-.52,1.55-.52l.95.02h6.57v3.72h-6.57c-1.12,0-1.91-.14-2.37-.41M125.94,13.09v4.4h9.61c1.71,0,2.86.25,3.45.75.59.5.88,1.48.88,2.93h-6.96c-2.26,0-3.86.17-4.83.52-1.09.39-1.97,1.12-2.64,2.2-.67,1.09-1.01,2.32-1.01,3.71,0,2.27.84,3.98,2.53,5.11.62.41,1.34.68,2.16.81.82.12,2.3.19,4.45.19h11.98v-11.63c.15-4.48-1.34-7.32-4.48-8.5-.66-.21-1.32-.34-1.98-.4s-1.84-.09-3.56-.09h-9.61.01ZM49.82,13.08v16.24h-4.96c-1.03,0-1.78-.23-2.24-.67-.45-.46-.69-1.19-.69-2.21v-13.36h-5.68v12.71c0,2.87.72,4.96,2.18,6.28.68.63,1.46,1.06,2.34,1.3.87.23,2.12.34,3.75.34h10.97V13.07h-5.67ZM87.31,13.08v20.62l5.67.02h.01V13.08h-5.69.01ZM149.52,13.08v20.63h5.67v-16.23h4.96c1.03,0,1.78.23,2.24.67.45.46.69,1.19.69,2.21v13.35h5.68v-12.71c0-2.87-.72-4.96-2.18-6.28-.69-.63-1.46-1.06-2.34-1.3-.87-.23-2.12-.34-3.75-.34h-10.97,0ZM23.36,5.37l-7.45,22.12L8.84,5.37H0v28.32l5.77.02V12.43l7.01,21.28h6.22l7.43-21.28v21.28h5.77V5.37h-8.84ZM59.5,5.37v28.33l5.69.02V5.38h-5.69ZM87.3,10.9h5.7v-5.53h-5.7v5.53ZM172.69,5.37v28.32l5.69.02v-6.58l2.46-2.65,5.02,9.23h5.67l-7.3-13.05,6.81-7.49h-6.47l-6.19,7.24V5.36h-5.69ZM72.64,5.36v7.59h-3.71v4.4h3.7v9.11c-.08,3.13.34,4.57,1.61,5.72,1.31,1.19,2.88,1.57,6.35,1.57h2.71v-4.41h-1.4c-2.79,0-3.64-.89-3.64-3.82v-8.17h5.23v-4.4h-5.23v-7.6h-5.63,0ZM102.9,22h8.37c1.38,0,2.37.2,2.97.59.83.53,1.23,1.38,1.23,2.53s-.43,2.12-1.32,2.8c-.35.27-.71.46-1.12.55-.4.09-1.04.14-1.9.14h-8.23v-6.61ZM102.9,10.36h8.37c1.38,0,2.37.2,2.97.59.83.53,1.23,1.38,1.23,2.53s-.43,2.13-1.32,2.8c-.36.27-.73.46-1.13.55-.39.08-1.02.14-1.89.14h-8.23v-6.61h0ZM97.22,5.32v28.32l5.69.02h9.67c2.36,0,4.12-.22,5.33-.62,1.2-.42,2.17-1.15,2.92-2.23.88-1.25,1.3-2.8,1.3-4.65,0-3.18-1.36-5.4-4.11-6.66,1.19-.48,2.18-1.36,2.96-2.64.78-1.26,1.18-2.63,1.18-4.11,0-1.12-.25-2.23-.73-3.27-.68-1.53-1.68-2.62-3.02-3.29-1.15-.57-2.97-.86-5.49-.86h-15.7,0Z"/>
    </g>
  </g>
</svg>