<?xml version="1.0" encoding="UTF-8"?>
<svg id="Layer_2" data-name="Layer 2" xmlns="http://www.w3.org/2000/svg" viewBox="0 0 114.07 37.49">
  <defs>
    <style>
      .cls-1 {
        fill: #fff;
      }
    </style>
  </defs>
  <g id="Layer_1-2" data-name="Layer 1">
    <g>
      <path class="cls-1" d="M100.61.03c4.48,12.46,8.97,24.94,13.46,37.44h-11.6c-.41-1.37-.83-2.75-1.24-4.12q-.27-.92-1.22-.92c-3.9,0-7.79,0-11.69,0-.46,0-.63.15-.74.56-.37,1.39-.79,2.77-1.17,4.16-.07.25-.16.35-.45.35-3.56-.01-7.13,0-10.69,0-.05,0-.09,0-.2-.02.24-.69.47-1.37.71-2.05,2.7-7.52,5.39-15.05,8.09-22.57,1.49-4.16,2.99-8.31,4.47-12.47.08-.22.15-.38.45-.38,3.9.01,7.79.01,11.69.01.03,0,.06.01.12.03M94.42,9.76h-.13c-1.48,5.14-2.97,10.29-4.46,15.47h9.21c-1.55-5.19-3.08-10.33-4.62-15.48"/>
      <path class="cls-1" d="M11.75,23.92v13.53H0V.03h28.65c-.48,1.29-.95,2.56-1.42,3.83-.47,1.28-.96,2.55-1.41,3.83-.11.32-.27.42-.61.42-4.26,0-8.53,0-12.79,0h-.63v7.64h11.37c-.36.93-.69,1.8-1.02,2.66-.66,1.7-1.33,3.39-1.97,5.09-.13.33-.3.44-.65.44-2.39-.02-4.77,0-7.16,0h-.59l-.02-.02Z"/>
      <path class="cls-1" d="M52.11.02h28.66c-.23.64-.45,1.27-.69,1.89-.71,1.9-1.44,3.79-2.13,5.69-.15.42-.35.5-.75.5-4.23,0-8.46,0-12.69,0-.64,0-.65,0-.65.65v6.97h11.42c-1.09,2.78-2.15,5.48-3.22,8.2h-8.2v13.52h-11.76V.02h.01Z"/>
      <rect class="cls-1" x="32.36" y=".02" width="11.54" height="37.43"/>
    </g>
  </g>
</svg>