<?xml version="1.0" encoding="UTF-8"?>
<svg id="Layer_2" data-name="Layer 2" xmlns="http://www.w3.org/2000/svg" viewBox="0 0 143.99 28.49">
  <defs>
    <style>
      .cls-1 {
        fill: #fff;
      }
    </style>
  </defs>
  <g id="Layer_1-2" data-name="Layer 1">
    <path class="cls-1" d="M20.89,25.63l-.43,2.83H0c.85-1.96.79-3.07.79-4.48V4.5C.79,3.13.84,1.92,0,.02h19.96l.04,2.89c-.37-.15-.68-.29-.95-.41-.74-.28-1.68-.54-2.65-.53H5.46v11.14h12.84l-.63,2.19H5.46v11.15h11.58c1.95.04,3.89-1.07,3.89-1.07l-.05.24h.02M51.69,28.46c.28-1.4.28-3.38.05-4.99l-1.82-13.4-9.93,18.39h-1.89l-10.09-19.22-1.96,14.53c-.21,1.68-.28,3.8-.1,4.7h-3.55c.69-1.45.86-2.09,1.18-4.47L26.79.02h1.63l11.77,22.37L51.95.02h1.23l3.32,23.92c.33,2.38.58,3.07,1.24,4.53h-6.06.01ZM81.58,28.46l-4.72-10.42h-9.5l-4.66,10.42h-3.71c1.18-1.46,1.58-2.14,2.41-3.96L72.42.01h1.24l10.84,23.81c1.16,2.33,1.7,3.05,3.36,4.64h-6.28ZM111.3,28.46l-4.72-10.42h-9.5l-4.66,10.42h-3.71c1.18-1.46,1.58-2.14,2.41-3.96L102.14.01h1.24l10.85,23.81c1.16,2.33,1.7,3.05,3.36,4.64h-6.29ZM138.23,28.48c-2.84-2.59-6.52-6.03-11.13-11.49-1.32-1.54-2.25-1.74-2.84-1.77v8.76c0,1.41,0,2.52.8,4.48h-6.26c.85-1.96.79-3.07.79-4.48V4.48c0-1.37.05-2.57-.79-4.48h6.13c4.19,0,14.09-.37,14.09,7.81,0,4.32-3.43,6.65-7.46,7.24l-1.2.12s13.07,12.77,13.63,13.32h-5.77.01ZM130.83,13.41h0c2.64-.99,3.53-3.49,3.44-5.61-.1-2.04-1.02-6.48-9.99-6.12v12.13s5.02.28,6.43-.34c.08-.04.12-.05.12-.05M97.98,16.06h7.67l-3.87-8.49-3.81,8.49h.01ZM68.27,16.06h7.67l-3.87-8.49-3.81,8.49h.01Z"/>
  </g>
</svg>