<?xml version="1.0" encoding="UTF-8"?>
<svg id="Layer_2" data-name="Layer 2" xmlns="http://www.w3.org/2000/svg" viewBox="0 0 67.44 67.44">
  <defs>
    <style>
      .cls-1 {
        fill: #fff;
      }
    </style>
  </defs>
  <g id="Layer_1-2" data-name="Layer 1">
    <path class="cls-1" d="M19.76.23c-3.59.17-6.04.74-8.18,1.58-2.22.86-4.1,2.02-5.97,3.9s-3.02,3.76-3.88,5.98c-.83,2.15-1.39,4.6-1.55,8.19S-.02,24.62,0,33.78c.02,9.16.06,10.3.23,13.9.17,3.59.74,6.04,1.58,8.18.86,2.22,2.02,4.09,3.9,5.97,1.88,1.87,3.76,3.02,5.98,3.88,2.14.83,4.6,1.4,8.18,1.55,3.59.16,4.75.19,13.9.17,9.15-.02,10.31-.06,13.9-.23,3.6-.17,6.03-.74,8.18-1.58,2.22-.87,4.1-2.02,5.97-3.9,1.87-1.88,3.02-3.76,3.88-5.98.83-2.14,1.4-4.6,1.55-8.18.16-3.6.2-4.75.18-13.9-.02-9.16-.06-10.3-.23-13.9-.17-3.6-.74-6.04-1.58-8.18-.86-2.22-2.02-4.09-3.9-5.97-1.88-1.87-3.76-3.02-5.98-3.88-2.15-.83-4.6-1.4-8.19-1.55S42.82-.02,33.65,0s-10.3.06-13.9.23M20.15,61.19c-3.29-.14-5.07-.69-6.26-1.15-1.57-.61-2.7-1.34-3.88-2.51-1.18-1.17-1.91-2.3-2.53-3.87-.46-1.19-1.02-2.97-1.17-6.26-.17-3.55-.2-4.62-.22-13.62s.01-10.07.17-13.62c.14-3.29.69-5.07,1.15-6.26.61-1.58,1.34-2.7,2.51-3.88,1.18-1.18,2.3-1.91,3.87-2.53,1.19-.46,2.97-1.02,6.26-1.17,3.56-.17,4.62-.2,13.62-.22,9-.02,10.07.01,13.63.17,3.28.14,5.07.69,6.26,1.15,1.58.61,2.7,1.34,3.88,2.51,1.19,1.18,1.91,2.3,2.53,3.87.46,1.18,1.01,2.97,1.17,6.26.17,3.56.21,4.62.22,13.62s-.02,10.07-.17,13.62c-.15,3.29-.69,5.07-1.15,6.27-.61,1.57-1.34,2.7-2.51,3.88-1.18,1.18-2.3,1.91-3.87,2.53-1.19.46-2.97,1.02-6.26,1.17-3.56.17-4.62.2-13.63.22-9,.02-10.07-.02-13.62-.17M47.64,15.69c0,2.23,1.82,4.04,4.05,4.04s4.04-1.82,4.04-4.05-1.82-4.04-4.05-4.04h0c-2.23,0-4.04,1.82-4.04,4.05M16.41,33.75c.02,9.56,7.79,17.3,17.35,17.28,9.56-.02,17.3-7.78,17.28-17.35-.02-9.56-7.78-17.3-17.35-17.28-9.56.02-17.3,7.79-17.28,17.35M22.49,33.74c-.01-6.21,5.01-11.25,11.22-11.26,6.21,0,11.25,5.01,11.26,11.22s-5.01,11.25-11.22,11.26-11.25-5.01-11.26-11.22h0"/>
  </g>
</svg>