<?xml version="1.0" encoding="UTF-8"?>
<svg id="Layer_2" data-name="Layer 2" xmlns="http://www.w3.org/2000/svg" viewBox="0 0 202.83 70.16">
  <defs>
    <style>
      .cls-1 {
        fill: #fff;
      }
    </style>
  </defs>
  <g id="Layer_1-2" data-name="Layer 1">
    <g>
      <path class="cls-1" d="M4.09,45.68H0v11.39h4.02c3.82,0,6.36-2.6,6.36-5.75s-2.47-5.64-6.29-5.64M4.12,54.84h-1.56v-6.86h1.56c2.13,0,3.65,1.45,3.65,3.45s-1.49,3.41-3.65,3.41"/>
      <path class="cls-1" d="M19.44,52.37c0,1.59-.98,2.5-2.3,2.5s-2.33-.95-2.33-2.5v-6.66h-2.6v6.76c0,2.91,1.93,4.8,4.87,4.8s4.94-1.96,4.94-4.9v-6.66h-2.54v6.66h-.04Z"/>
      <path class="cls-1" d="M31.81,51.12c.91-.51,1.49-1.45,1.49-2.5,0-1.89-1.66-2.94-3.61-2.94h-5.11v11.39h5.41c2.06,0,3.82-1.22,3.82-3.18-.03-1.25-.81-2.37-1.99-2.77M29.14,50.27h-1.99v-2.57h1.99c1.01,0,1.56.61,1.56,1.29s-.54,1.28-1.56,1.28M27.14,52.17h2.37c1.01,0,1.69.57,1.69,1.42,0,.78-.57,1.45-1.69,1.45h-2.37s0-2.87,0-2.87Z"/>
      <path class="cls-1" d="M41.47,45.68h-2.53l-4.63,11.39h2.71l.91-2.36h4.43l.91,2.36h2.84l-4.6-11.36-.03-.03h0ZM41.64,52.64h-2.97l1.49-3.89,1.49,3.89h-.01Z"/>
      <rect class="cls-1" x="47.49" y="45.68" width="2.64" height="11.39"/>
      <path class="cls-1" d="M61.86,45.68h-4.94v11.39h2.6v-3.58h2.26c2.71,0,4.36-1.79,4.36-3.96-.03-2.4-1.86-3.85-4.29-3.85M59.49,47.91h2.1c1.25,0,1.96.78,1.96,1.72s-.71,1.72-1.96,1.72h-2.1v-3.45h0Z"/>
      <path class="cls-1" d="M73.48,45.54c-3.38,0-6.02,2.57-6.02,5.91s2.5,5.82,5.95,5.82,6.02-2.57,6.02-5.88-2.5-5.85-5.95-5.85M73.45,54.87c-1.99,0-3.41-1.49-3.41-3.48s1.39-3.48,3.41-3.48,3.41,1.49,3.41,3.48c-.04,1.96-1.45,3.48-3.41,3.48"/>
      <path class="cls-1" d="M104.44,53.62c-.64.81-1.62,1.28-2.64,1.25-1.96,0-3.41-1.45-3.41-3.48s1.42-3.48,3.41-3.48c.98-.03,1.93.41,2.57,1.15l.03.03,1.89-1.69-.04-.03c-1.15-1.25-2.74-1.93-4.43-1.89-3.38,0-6.02,2.6-6.02,5.92s2.57,5.82,5.95,5.82c1.76.03,3.41-.71,4.56-2.03l.03-.03-1.89-1.62-.03.1.02-.02Z"/>
      <polygon class="cls-1" points="84.09 45.68 81.49 45.68 81.49 57.1 89.57 57.1 89.57 54.77 84.09 54.77 84.09 45.68"/>
      <rect class="cls-1" x="91.09" y="45.68" width="2.64" height="11.39"/>
      <polygon class="cls-1" points="110.53 54.84 110.53 52.3 115.56 52.3 115.56 50.17 110.53 50.17 110.53 47.94 116.37 47.94 116.37 45.68 107.96 45.68 107.96 57.1 116.54 57.1 116.54 54.84 110.53 54.84"/>
      <path class="cls-1" d="M62.7,18.03c.95,0,1.69-.74,1.69-1.69s-.75-1.69-1.69-1.69-1.69.74-1.69,1.69.75,1.69,1.69,1.69"/>
      <path class="cls-1" d="M107.28,15.46c.95,0,1.69-.74,1.69-1.69s-.75-1.69-1.69-1.69-1.69.74-1.69,1.69.78,1.69,1.69,1.69"/>
      <path class="cls-1" d="M104.95,19.38c.95,0,1.69-.74,1.69-1.69s-.75-1.69-1.69-1.69-1.69.74-1.69,1.69.75,1.69,1.69,1.69"/>
      <path class="cls-1" d="M107.96,17.69c0,.95.74,1.69,1.69,1.69s1.69-.75,1.69-1.69-.74-1.69-1.69-1.69c-.95-.03-1.69.75-1.69,1.69"/>
      <path class="cls-1" d="M114.08,19.79l-2.84,1.72c.68,1.11,2.64,4.93,1.72,10.34h-3.99v-10.34h-3.35v10.34h-2.54v-10.34h-3.35v10.34h-4.73v-11.69h-3.35v13.15c0,2.71-2.2,4.87-4.9,4.9h-.85v3.35h.85c3.82,0,7.1-2.64,8.01-6.32h20.85l.3-1.28c1.79-7.37-.98-12.71-1.86-14.16"/>
      <path class="cls-1" d="M41.81,19.75l-1.49,2.97c4.33,2.16,4.6,6.46,4.26,9.13h-7.44v3.35h10.21l.3-1.32c2.03-9.36-3.95-13.18-5.85-14.13"/>
      <path class="cls-1" d="M87.78,35.2l.88-2.97c.78-2.71.27-5.61-1.38-7.88-2.94-3.96-8.48-4.77-12.44-1.83-.17.1-.3.24-.47.37l-2.94,2.5v-9.09h-3.31v15.55h-3.75v-11.69h-3.45c-4.6,0-8.35,3.75-8.35,8.35v6.72h3.35v-6.72c0-2.77,2.23-5,5-5h.1v11.73l26.77-.03h-.01ZM71.45,29.79l5.1-4.36c2.33-1.99,5.85-1.72,7.84.64.07.1.17.2.24.3,1.05,1.42,1.39,3.25.88,4.94l-.17.57h-13.86l-.03-2.1h0Z"/>
      <path class="cls-1" d="M31.64,37.33c-.95,0-1.69.74-1.69,1.69s.75,1.69,1.69,1.69,1.69-.74,1.69-1.69c.03-.91-.75-1.69-1.69-1.69"/>
      <path class="cls-1" d="M13.86,37.33c-.95,0-1.69.74-1.69,1.69s.75,1.69,1.69,1.69,1.69-.74,1.69-1.69-.78-1.69-1.69-1.69"/>
      <path class="cls-1" d="M9.57,37.33c-.95,0-1.69.74-1.69,1.69s.75,1.69,1.69,1.69,1.69-.74,1.69-1.69c.03-.91-.75-1.69-1.69-1.69"/>
      <path class="cls-1" d="M58.54,18.03c.95,0,1.69-.74,1.69-1.69s-.75-1.69-1.69-1.69-1.69.74-1.69,1.69.75,1.69,1.69,1.69"/>
      <path class="cls-1" d="M31.81,29.82c0,1.11-.91,2.03-2.03,2.03h-1.52v-11.69h-3.51c-4.5,0-8.04,3.65-8.04,8.35v3.38H3.36v-.44c0-3.51.85-6.96,2.5-10.07l-2.94-1.56C1.03,23.4.05,27.42.05,31.48v3.79h20.04v-6.72c0-2.84,2.03-5,4.7-5h.17v11.73h4.83c2.97,0,5.37-2.4,5.37-5.37v-9.73h-3.35v9.67-.03Z"/>
      <path class="cls-1" d="M202.16,39.26c-.57-.04-1.18,0-1.72.1.44-.47.81-.95,1.15-1.49,1.25-1.96,1.55-4.33.91-6.52-.57.1-1.15.24-1.66.47.3-.54.57-1.11.78-1.69.78-2.16.61-4.56-.51-6.59-.54.2-1.05.47-1.52.81.2-.61.34-1.22.41-1.82.34-2.3-.34-4.6-1.83-6.35-.47.34-.95.71-1.32,1.11.07-.61.07-1.25.03-1.89-.17-2.3-1.32-4.43-3.18-5.78-.41.4-.78.88-1.05,1.39-.07-.61-.2-1.25-.37-1.83-.64-2.2-2.23-4.02-4.29-5-.3.51-.57,1.01-.74,1.56-.2-.61-.44-1.18-.75-1.72-1.08-2.03-3.01-3.48-5.27-3.99-.4,1.11-.54,2.33-.44,3.51-.24-.2-.54-.37-.85-.57-1.96-1.22-4.36-1.49-6.56-.81.41,2.26,1.79,4.22,3.79,5.41.3.17.61.34.88.47-1.11.44-2.13,1.11-2.91,1.99,1.21,1.45,2.94,2.4,4.83,2.71.91,1.66,2.37,2.91,4.12,3.58.54,1.79,1.69,3.35,3.28,4.39.13,1.86.95,3.65,2.26,4.97-.27,1.86.17,3.75,1.18,5.34-.64,1.76-.64,3.72.03,5.48-1.01,1.59-1.38,3.48-1.11,5.34-1.32,1.35-2.1,3.11-2.23,5-1.56,1.05-2.7,2.6-3.24,4.39-1.76.68-3.21,1.96-4.09,3.62-1.86.3-3.55,1.25-4.77,2.67-2.26-.1-4.5.74-6.08,2.4-1.11,1.11-1.72,2.16-2.06,3.18-.3,1.01-1.35,1.59-2.36,1.28-.61-.17-1.08-.68-1.28-1.28-.3-1.01-.95-2.1-2.06-3.18-1.59-1.62-3.82-2.5-6.08-2.4-1.22-1.42-2.91-2.4-4.73-2.7-.88-1.66-2.33-2.94-4.09-3.62-.5-1.79-1.66-3.38-3.24-4.39-.14-1.86-.91-3.65-2.23-5,.27-1.86-.14-3.75-1.11-5.34.64-1.76.68-3.72.03-5.48,1.01-1.59,1.42-3.48,1.18-5.34,1.32-1.32,2.13-3.11,2.26-4.97,1.59-1.01,2.74-2.57,3.28-4.39,1.76-.68,3.21-1.96,4.12-3.58,1.89-.3,3.58-1.25,4.83-2.71-.81-.88-1.79-1.56-2.91-1.99.3-.14.57-.3.88-.47,2-1.18,3.35-3.14,3.79-5.41-2.2-.68-4.6-.37-6.56.81-.3.17-.57.37-.85.57.14-1.18,0-2.4-.4-3.51-2.23.51-4.16,1.96-5.27,3.99-.3.54-.54,1.11-.74,1.72-.2-.54-.44-1.08-.75-1.56-2.1.98-3.65,2.81-4.29,5-.17.61-.3,1.22-.37,1.83-.3-.51-.64-.95-1.05-1.39-1.86,1.39-3.01,3.51-3.18,5.81-.07.61-.04,1.25.03,1.89-.41-.44-.85-.81-1.32-1.11-1.52,1.76-2.2,4.06-1.86,6.32.07.61.2,1.25.4,1.82-.47-.34-.98-.61-1.52-.81-1.11,2.03-1.28,4.43-.51,6.59.2.61.47,1.15.78,1.69-.54-.24-1.12-.37-1.66-.47-.64,2.2-.34,4.6.91,6.52.34.54.71,1.05,1.15,1.49-.57-.1-1.15-.14-1.72-.1-.17,2.3.64,4.57,2.26,6.19.44.44.91.88,1.42,1.22-.57,0-1.15.1-1.72.24.3,2.3,1.59,4.33,3.52,5.58.5.34,1.08.64,1.66.91-.57.14-1.11.34-1.62.61.78,2.16,2.47,3.89,4.63,4.73.58.24,1.18.4,1.79.54-.5.27-1.01.57-1.45.95,1.22,1.96,3.25,3.28,5.51,3.65.61.1,1.25.17,1.86.14-.44.37-.88.78-1.22,1.22,1.62,1.65,3.85,2.53,6.15,2.4.64-.04,1.25-.1,1.86-.24-.37.44-.68.95-.95,1.45,1.93,1.28,4.29,1.66,6.52,1.05.98-.24,1.89-.64,2.74-1.22,2.3-1.59,5.34-1.59,7.67,0,.84.54,1.76.98,2.74,1.22,2.23.61,4.6.24,6.52-1.05-.27-.51-.58-1.01-.95-1.45.61.14,1.22.24,1.86.24,2.3.13,4.53-.75,6.15-2.4-.37-.44-.78-.88-1.22-1.22.64,0,1.25-.03,1.86-.14,2.26-.37,4.29-1.69,5.51-3.65-.44-.37-.95-.68-1.45-.95.61-.14,1.22-.3,1.79-.54,2.16-.85,3.85-2.57,4.63-4.73-.51-.27-1.05-.47-1.62-.61.58-.24,1.12-.54,1.66-.91,1.93-1.25,3.21-3.31,3.51-5.58-.57-.14-1.15-.24-1.72-.24.51-.37.98-.78,1.42-1.22,1.39-1.62,2.23-3.85,2.06-6.15M151.63,56.49c1.35.51,2.53,1.45,3.31,2.67.98,1.55,1.32,2.91,1.08,4.12-1.22-.27-2.3-1.15-3.28-2.7-.81-1.22-1.18-2.67-1.11-4.09M147.2,53.01c1.22.78,2.16,1.96,2.64,3.31.64,1.72.68,3.11.2,4.26-1.12-.54-2-1.62-2.64-3.31-.54-1.35-.61-2.84-.2-4.26M143.55,48.72c1.01,1.05,1.69,2.36,1.89,3.82.27,1.82,0,3.18-.71,4.19-.98-.75-1.62-2-1.89-3.82-.2-1.45.03-2.91.71-4.19M140.91,43.75c.78,1.22,1.15,2.67,1.05,4.12-.14,1.82-.68,3.11-1.59,3.96-.81-.95-1.18-2.3-1.05-4.12.1-1.45.64-2.84,1.59-3.96M135.98,35.64c.68-1.28,1.76-2.33,3.08-2.94.2,1.45-.07,2.91-.74,4.19-.88,1.62-1.89,2.57-3.08,2.94-.34-1.22-.14-2.57.74-4.19M134.66,33.27c-.07-1.25.44-2.53,1.62-3.95.95-1.12,2.2-1.89,3.62-2.23-.1,1.45-.68,2.84-1.62,3.92-1.18,1.42-2.4,2.13-3.62,2.26M137.02,41.82c.41-1.39,1.22-2.64,2.37-3.51.51,1.35.57,2.84.17,4.26-.51,1.76-1.32,2.91-2.37,3.51-.61-1.08-.68-2.5-.17-4.26M139.46,25.33c-1.45,1.11-2.77,1.55-4.02,1.42.17-1.22.95-2.4,2.4-3.51,1.15-.88,2.53-1.39,3.99-1.42-.37,1.42-1.22,2.64-2.37,3.51M153.65,10.05c-1.15.88-2.57,1.38-4.02,1.38-1.83.04-3.18-.4-4.06-1.25.88-.88,2.2-1.35,4.02-1.39,1.42,0,2.87.41,4.06,1.25M151.52,4.1c1.25-.74,2.71-1.08,4.12-.95-.54,1.35-1.52,2.47-2.77,3.21-1.59.95-2.94,1.25-4.16.95.34-1.18,1.25-2.26,2.81-3.21M145.51,4.65c.71-1.29,1.79-2.3,3.11-2.91.2,1.45-.1,2.91-.81,4.16-.88,1.62-1.93,2.53-3.11,2.91-.3-1.18-.07-2.57.81-4.16M144.66,12.76c1.42-.34,2.91-.2,4.22.37-.95,1.12-2.23,1.89-3.61,2.2-1.79.4-3.18.27-4.23-.34.64-1.05,1.83-1.79,3.62-2.23M139.83,9.51c.41-1.38,1.25-2.6,2.43-3.48.51,1.35.54,2.87.1,4.26-.54,1.76-1.35,2.91-2.43,3.48-.57-1.08-.64-2.47-.1-4.26M140.71,17.62c1.32-.64,2.81-.81,4.23-.54-.68,1.28-1.76,2.3-3.08,2.91-1.65.78-3.04.95-4.22.54.4-1.11,1.42-2.1,3.07-2.91M135.27,15.49c.1-1.45.68-2.84,1.62-3.92.78,1.25,1.11,2.67.98,4.12-.14,1.82-.71,3.11-1.62,3.92-.78-.95-1.11-2.3-.98-4.12M132.87,18.13c1.01,1.05,1.66,2.4,1.82,3.82.24,1.82-.03,3.18-.78,4.19-.98-.78-1.59-2.03-1.83-3.82-.2-1.45.07-2.91.78-4.19M130.3,25.4c1.22.81,2.13,2,2.6,3.35.61,1.72.64,3.11.14,4.26-1.12-.54-2-1.62-2.6-3.35-.51-1.39-.54-2.87-.14-4.26M129.28,33c1.35.54,2.5,1.49,3.25,2.74.98,1.55,1.28,2.91,1.01,4.12-1.18-.3-2.3-1.18-3.24-2.74-.74-1.22-1.12-2.67-1.01-4.12M131.82,44.5c-1.01-1.05-1.66-2.37-1.86-3.82,1.42.24,2.74.95,3.75,1.99,1.29,1.32,1.86,2.57,1.86,3.82-1.25-.07-2.47-.68-3.75-1.99M134.83,51.36c-1.22-.81-2.13-1.96-2.64-3.35,1.45-.07,2.87.34,4.09,1.15,1.52,1.01,2.37,2.13,2.64,3.35-1.22.24-2.57-.1-4.09-1.15M139.22,57.47c-1.35-.54-2.5-1.49-3.28-2.71,1.42-.37,2.91-.27,4.22.27,1.72.68,2.77,1.59,3.28,2.7-1.15.44-2.53.41-4.22-.27M144.77,62.51c-1.42-.24-2.77-.91-3.79-1.96,1.28-.67,2.77-.88,4.19-.64,1.82.3,3.04.98,3.79,1.96-.98.71-2.37.95-4.19.64M151.29,66.23c-1.45.07-2.87-.3-4.09-1.11,1.11-.91,2.53-1.45,3.99-1.52,1.83-.1,3.18.3,4.09,1.11-.85.91-2.16,1.45-3.99,1.52M158.45,68.53c-1.39.37-2.91.3-4.26-.24.91-1.15,2.16-1.96,3.58-2.3,1.79-.47,3.18-.37,4.26.24-.67,1.05-1.82,1.82-3.58,2.3M158.66,62.71c-1.05-1.01-1.72-2.37-1.93-3.79,1.45.24,2.77.91,3.79,1.93,1.28,1.32,1.89,2.57,1.93,3.79-1.25-.03-2.5-.64-3.79-1.93M201.41,33c.1,1.45-.24,2.91-1.01,4.12-.98,1.55-2.06,2.43-3.25,2.74-.24-1.22.04-2.57,1.01-4.12.75-1.25,1.89-2.2,3.25-2.74M200.4,25.36c.4,1.39.37,2.87-.14,4.26-.61,1.72-1.49,2.81-2.6,3.35-.51-1.12-.51-2.54.14-4.26.51-1.35,1.42-2.53,2.6-3.35M196.01,21.95c.17-1.45.85-2.77,1.82-3.82.71,1.28.98,2.74.78,4.16-.24,1.82-.88,3.07-1.83,3.82-.74-.95-1.01-2.33-.78-4.16M192.42,36.89c-.71-1.28-.95-2.74-.74-4.19,1.32.61,2.4,1.66,3.08,2.94.88,1.62,1.08,3.01.74,4.19-1.18-.37-2.2-1.32-3.08-2.94M193.57,46.08c-1.08-.61-1.86-1.76-2.37-3.51-.4-1.39-.34-2.87.17-4.26,1.15.88,2,2.13,2.37,3.51.47,1.79.4,3.18-.17,4.26M192.46,31.04c-.95-1.12-1.52-2.5-1.62-3.92,1.42.34,2.67,1.12,3.62,2.23,1.18,1.39,1.69,2.7,1.62,3.96-1.22-.14-2.43-.85-3.61-2.26M193.81,11.61c.95,1.08,1.52,2.47,1.62,3.92.13,1.82-.2,3.18-.98,4.12-.91-.81-1.49-2.1-1.62-3.92-.14-1.45.2-2.91.98-4.12M188.5,6.03c1.15.88,2.03,2.1,2.43,3.48.54,1.76.47,3.14-.1,4.26-1.08-.61-1.89-1.72-2.43-3.48-.44-1.42-.4-2.91.1-4.26M182.11,1.74c1.32.61,2.4,1.62,3.11,2.91.88,1.62,1.12,2.97.81,4.19-1.18-.37-2.23-1.29-3.11-2.91-.71-1.28-1.01-2.77-.81-4.19M177.82,6.37c-1.25-.74-2.23-1.86-2.77-3.21,1.45-.14,2.91.2,4.12.95,1.59.95,2.47,2.03,2.77,3.21-1.18.3-2.53,0-4.12-.95M181.1,11.44c-1.45-.03-2.87-.5-4.02-1.38,1.18-.85,2.6-1.29,4.06-1.25,1.82.04,3.14.51,4.02,1.39-.88.88-2.23,1.29-4.06,1.25M181.81,13.13c1.32-.57,2.81-.71,4.22-.37,1.79.44,2.97,1.18,3.65,2.2-1.05.64-2.47.78-4.22.34-1.42-.3-2.71-1.08-3.65-2.16M185.8,17.08c1.42-.27,2.91-.1,4.23.54,1.66.78,2.64,1.76,3.07,2.94-1.18.4-2.57.24-4.22-.54-1.32-.61-2.4-1.66-3.08-2.94M188.87,21.82c1.45.03,2.87.54,3.99,1.42,1.45,1.11,2.23,2.3,2.4,3.51-1.22.14-2.57-.3-4.02-1.42-1.15-.88-2-2.13-2.37-3.51M189.82,43.75c.95,1.12,1.49,2.5,1.59,3.96.13,1.82-.24,3.18-1.05,4.12-.91-.85-1.45-2.13-1.59-3.96-.1-1.45.24-2.91,1.05-4.12M185.29,52.54c.2-1.45.88-2.77,1.89-3.82.68,1.28.95,2.74.71,4.19-.27,1.82-.91,3.04-1.89,3.82-.75-1.01-.98-2.4-.71-4.19M180.9,56.36c.51-1.35,1.42-2.54,2.64-3.31.41,1.38.34,2.87-.17,4.26-.64,1.72-1.52,2.81-2.64,3.31-.54-1.15-.47-2.54.17-4.26M175.79,59.16c.78-1.22,1.93-2.16,3.28-2.71.1,1.45-.27,2.91-1.08,4.12-.98,1.56-2.1,2.4-3.28,2.7-.24-1.22.1-2.6,1.08-4.12M170.22,60.82c1.01-1.05,2.33-1.72,3.79-1.93-.2,1.45-.88,2.77-1.93,3.79-1.28,1.32-2.54,1.93-3.79,1.93.03-1.22.64-2.47,1.93-3.79M172.28,68.53c-1.79-.47-2.94-1.25-3.58-2.3,1.08-.61,2.47-.71,4.26-.24,1.42.37,2.67,1.18,3.58,2.3-1.35.54-2.84.61-4.26.24M179.44,66.23c-1.82-.1-3.14-.61-3.99-1.52.95-.81,2.26-1.22,4.09-1.11,1.45.07,2.84.57,3.99,1.52-1.18.81-2.64,1.22-4.09,1.11M185.93,62.51c-1.82.3-3.18.07-4.19-.64.74-.98,1.96-1.66,3.79-1.96,1.42-.24,2.91-.03,4.19.64-1.01,1.01-2.33,1.72-3.79,1.96M191.51,57.47c-1.72.68-3.11.74-4.26.27.51-1.11,1.55-2.03,3.28-2.7,1.35-.54,2.84-.64,4.22-.27-.75,1.22-1.89,2.16-3.25,2.71M198.54,48.04c-.51,1.35-1.42,2.53-2.64,3.35-1.52,1.01-2.87,1.39-4.09,1.15.27-1.22,1.11-2.33,2.64-3.35,1.18-.81,2.64-1.21,4.09-1.15M195.16,46.49c0-1.25.57-2.5,1.86-3.82,1.01-1.05,2.33-1.76,3.75-1.99-.2,1.45-.85,2.77-1.86,3.82-1.28,1.32-2.53,1.96-3.75,1.99"/>
      <path class="cls-1" d="M144.56,37.9v.95c1.18,2.3,2.54,4.53,4.02,6.66h-3.35s.68,1.39,2.71,1.39h34.78c2.06,0,2.7-1.39,2.7-1.39h-3.04c1.56-2.3,2.94-4.67,4.19-7.13h1.66v-2.64h-9.06c-9.53-7.74-11.56-20.96-6.02-30.86-15.82,3.14-27.72,16.93-28.6,33.02M145.27,37.94c4.7-2.91,10.07-4.6,15.58-4.9v4.9h-15.58ZM178.43,36.85l-.78,1.05h-14.6v-4.93c5.34.03,10.61,1.39,15.38,3.89M175.42,33.98c-9.57-3.72-20.28-3.04-29.27,1.86,1.69-13.69,11.36-25.05,24.57-28.93-3.79,9.16-1.93,19.71,4.7,27.07"/>
      <path class="cls-1" d="M163.83,58.42h3.08c2.06,0,2.7-1.39,2.7-1.39h-8.52s.68,1.39,2.74,1.39"/>
      <path class="cls-1" d="M175.83,54.16h-20.92s.68,1.39,2.71,1.39h15.48c2.06-.03,2.74-1.39,2.74-1.39"/>
      <path class="cls-1" d="M180.56,51.25h-30.39s.68,1.39,2.71,1.39h24.94c2.06,0,2.74-1.39,2.74-1.39"/>
      <path class="cls-1" d="M183.43,48.38h-36.13s.68,1.39,2.71,1.39h30.72c2.06-.03,2.7-1.39,2.7-1.39"/>
    </g>
  </g>
</svg>