<?xml version="1.0" encoding="UTF-8"?>
<svg id="Layer_2" data-name="Layer 2" xmlns="http://www.w3.org/2000/svg" viewBox="0 0 142.52 32.93">
  <defs>
    <style>
      .cls-1 {
        fill: #fff;
      }
    </style>
  </defs>
  <g id="Layer_1-2" data-name="Layer 1">
    <g>
      <path class="cls-1" d="M0,.1h24.43l-2.24,6.99h-6.33v25.84h-7.91V7.07H0V.09h0Z"/>
      <path class="cls-1" d="M64.45.1h24.99l-2.24,6.99h-6.89v25.84h-7.91V7.07h-7.95V.09h0Z"/>
      <polygon class="cls-1" points="25.91 10.55 33.75 10.55 33.75 32.93 25.96 32.93 25.91 10.55"/>
      <path class="cls-1" d="M36.85,0h7.82v15.29l7.76-7.61h9.34l-9.81,9.51,10.99,15.73h-8.61l-7.33-10.9-2.33,2.25v8.64h-7.82V0h-.01Z"/>
      <path class="cls-1" d="M116.42,0h7.82v15.29l7.76-7.61h9.34l-9.81,9.51,10.99,15.73h-8.61l-7.33-10.9-2.33,2.25v8.64h-7.82V0h-.01Z"/>
      <circle class="cls-1" cx="29.83" cy="4.04" r="3.95"/>
      <path class="cls-1" d="M99.84,6.13c-7.41,0-13.4,5.99-13.4,13.4s5.99,13.4,13.4,13.4,13.4-5.99,13.4-13.4-6.01-13.4-13.4-13.4h0ZM99.84,26.04c-3.59,0-6.51-2.92-6.51-6.51s2.92-6.51,6.51-6.51,6.51,2.92,6.51,6.51h0c0,3.59-2.92,6.51-6.51,6.51h0Z"/>
    </g>
  </g>
</svg>