<?xml version="1.0" encoding="UTF-8"?>
<svg id="Layer_2" data-name="Layer 2" xmlns="http://www.w3.org/2000/svg" viewBox="0 0 161.45 45.55">
  <defs>
    <style>
      .cls-1 {
        fill: #fff;
      }
    </style>
  </defs>
  <g id="Layer_1-2" data-name="Layer 1">
    <g>
      <path class="cls-1" d="M27.85,6.1h-1.09l4.01-4.46c.29-.32.55-.57.8-.89.29-.21.51-.57.87-.64.51-.14,1.12.18,1.28.75.1.25.16.75-.03.96-.16.39-.51.57-.8.79,0,0-5.04,3.49-5.04,3.49Z"/>
      <path class="cls-1" d="M130.45,32.5h-3.23l-3.44-9.62h-7.91l-3.56,9.62h-2.22l10.01-24.91h.74l9.62,24.91h-.01ZM119.81,12.26l-3.41,9.12h6.84l-3.43-9.12h0Z"/>
      <path class="cls-1" d="M78.03,32.5h-3.23l-3.43-9.62h-7.91l-3.56,9.62h-2.23l10.01-24.91h.74l9.61,24.91h0ZM67.39,12.26l-3.41,9.12h6.84l-3.43-9.12h0Z"/>
      <path class="cls-1" d="M75.12,45.55h-.97l-1.03-2.89h-2.37l-1.07,2.89h-.67l3.01-7.48h.22l2.89,7.48h0ZM71.93,39.48l-1.02,2.74h2.05l-1.03-2.74Z"/>
      <path class="cls-1" d="M161.45,30.72s-.03,1.32,0,1.67h-11.58V8.12h11.39v1.67h-8.56v8.94h7.83v1.57h-7.83v10.41h8.75Z"/>
      <path class="cls-1" d="M35.49,30.72s-.04,1.32,0,1.67h-11.58V8.12h11.39v1.67h-8.56v8.94h7.83v1.57h-7.83v10.41h8.76,0Z"/>
      <path class="cls-1" d="M137.81,32.97c-1.94,0-3.65-.43-5.1-1.28v-3.09c.77.93,2.7,3.06,5.65,3.06,3.57,0,5.18-2.48,5.18-4.94,0-3.02-1.95-4.14-4.22-5.11-3.57-1.58-4.5-1.96-5.37-2.78-1.02-.89-1.65-2.56-1.65-4.36,0-4.72,3.71-6.84,7.38-6.84,2.15,0,3.95.73,4.71,1.08v2.95c-.68-.84-2.56-2.82-5.12-2.82-4.37,0-4.5,3.85-4.5,4.29,0,2.98,2.36,4.01,3.98,4.68,3.48,1.42,4.43,1.78,5.58,2.78,1.53,1.31,1.86,3.16,1.86,4.5,0,3.92-2.59,7.88-8.38,7.88"/>
      <path class="cls-1" d="M94.59,45.55c-.58,0-1.1-.13-1.53-.39v-.93c.23.28.81.92,1.7.92,1.07,0,1.56-.75,1.56-1.49,0-.9-.59-1.24-1.27-1.53-1.07-.48-1.35-.59-1.61-.83-.31-.27-.5-.77-.5-1.31,0-1.42,1.11-2.06,2.22-2.06.65,0,1.19.22,1.41.33v.88c-.2-.25-.77-.85-1.54-.85-1.31,0-1.35,1.16-1.35,1.29,0,.9.71,1.2,1.2,1.41,1.05.43,1.33.53,1.68.84.46.39.55.95.55,1.35,0,1.18-.78,2.37-2.51,2.37"/>
      <path class="cls-1" d="M85.21,33.08c-1.94,0-3.66-.43-5.11-1.28v-3.09c.77.92,2.7,3.06,5.65,3.06,3.58,0,5.17-2.48,5.17-4.95,0-3.02-1.95-4.14-4.21-5.11-3.58-1.59-4.51-1.96-5.37-2.78-1.02-.89-1.65-2.56-1.65-4.36,0-4.72,3.71-6.84,7.39-6.84,2.15,0,3.95.72,4.71,1.08v2.95c-.68-.84-2.56-2.82-5.11-2.82-4.37,0-4.5,3.86-4.5,4.29,0,2.99,2.36,4.01,3.98,4.68,3.48,1.42,4.44,1.78,5.58,2.78,1.53,1.31,1.85,3.17,1.85,4.5,0,3.92-2.59,7.88-8.37,7.88"/>
      <polygon class="cls-1" points="111.47 8.13 94.92 8.13 94.92 9.7 101.94 9.7 101.94 32.57 104.77 32.57 104.77 9.7 111.47 9.7 111.47 8.13"/>
      <path class="cls-1" d="M47.79,20.31c3.24-.64,6.8-2.49,6.8-6.62,0-3.6-2.82-5.56-7.38-5.56h-6.77v24.37h2.82v-11.9h1.22l2.57,3.35,3.78,5.45c.68,1,1.32,2,2.03,3.1.57-.04,3.69,0,3.69,0l-8.76-12.19h0ZM45.12,19.33c-.76.03-1.27.03-1.86-.03v-9.86h2.64c2.48,0,5.83.4,5.83,4.62,0,5.01-5.09,5.19-6.62,5.27"/>
      <path class="cls-1" d="M64.59,41.89c.97-.19,2.04-.75,2.04-1.99,0-1.08-.85-1.67-2.22-1.67h-2.03v7.32h.85v-3.57h.36c.42,0,1-.09,1-.09M63.79,41.6h-.56v-2.96h.79c.75,0,1.75.12,1.75,1.39,0,1.5-1.53,1.56-1.99,1.58"/>
      <path class="cls-1" d="M81.55,41.89c.97-.19,2.04-.75,2.04-1.99,0-1.08-.85-1.67-2.21-1.67h-2.03v7.32h.85v-3.57h.36l.77,1,1.14,1.64c.2.3.4.6.61.93h1.11l-2.63-3.66h-.01ZM80.75,41.6h-.56v-2.96h.79c.75,0,1.75.12,1.75,1.39,0,1.5-1.53,1.56-1.99,1.58"/>
      <path class="cls-1" d="M6.5,14.59L20.81,0h-3.59L4.07,14.76s-.35.42-.61.42V0H0v32.54h3.46V15.95c.24.04.48.37.48.37l12.62,16.22h4.58L6.49,14.59h0Z"/>
      <rect class="cls-1" x="88.12" y="38.21" width=".85" height="7.34"/>
    </g>
  </g>
</svg>