<?xml version="1.0" encoding="UTF-8"?>
<svg id="Layer_2" data-name="Layer 2" xmlns="http://www.w3.org/2000/svg" viewBox="0 0 202.65 40.01">
  <defs>
    <style>
      .cls-1 {
        fill: #fff;
      }
    </style>
  </defs>
  <g id="Layer_1-2" data-name="Layer 1">
    <g>
      <path class="cls-1" d="M18.99,0c-.82,0-1.05.69-1.35,1.39l-5.7,13.74c-.2.47-.3.79-.6.79-.26,0-.36-.56-.53-1.05L5.93.51C5.79.08,5.3,0,4.9,0H.82c.79.5.83.96.83,1.85v8.24c0,3.56-.13,8.77-1.35,10.51l-.3.43h3.92c-.72-1.09-.72-3.23-.72-5.8l.03-10.71c0-.5,0-1.09.3-1.09s.53.79.89,1.74l6.26,16.18L18.07,3.93c.1-.26.2-.49.42-.49s.23.39.23.72v10.94c0,1.85,0,4.28-.6,5.93h4.85c-.72-1.32-.86-2.83-1.02-4.32-.42-3.95-.26-8.07-.26-12.02,0-1.65-.1-3.43.66-4.68h-3.36Z"/>
      <path class="cls-1" d="M29.99,16.71c0,1.48,0,3.2-.72,4.32h4.42c-.73-1.12-.73-2.84-.73-4.32V4.32c0-1.48,0-3.2.73-4.31h-4.42c.72,1.12.72,2.83.72,4.31v12.39Z"/>
      <path class="cls-1" d="M41.95,13.55c0,1.55-.13,6.2-1.12,7.48h9.13c.66,0,1.35-.03,2.01-.1l.63-3.1c-1.65,1.62-3.33,1.88-5.17,1.88h-2.51V4.32c0-1.49,0-3.2.73-4.32h-4.42c.72,1.12.72,2.83.72,4.32v9.23Z"/>
      <path class="cls-1" d="M59.27,13.55c0,1.55-.14,6.2-1.12,7.48h9.13c.66,0,1.35-.03,2.01-.1l.63-3.1c-1.65,1.62-3.33,1.88-5.17,1.88h-2.51V4.32c0-1.49,0-3.2.73-4.32h-4.42c.72,1.12.72,2.83.72,4.32v9.23Z"/>
      <path class="cls-1" d="M79.17,10.85h.82c2.04,0,5.77,0,6.92-1.88-2.53.23-5.2.23-7.74.23V1.33h3.07c1.94,0,3.72.23,4.87,1.21l-.13-2.53h-11.5c.73,1.12.73,2.83.73,4.31v12.39c0,1.48-.1,3.2-.83,4.32h9.53c1.18,0,2.27-.1,3.16-.16l.6-3.03c-1.55,1.38-3.66,1.88-5.7,1.88h-3.79v-8.87h0Z"/>
      <path class="cls-1" d="M97.95,21.03c-1.05-2.47-.99-5.8-.99-8.43V4.13c0-.29.07-.49.2-.49s.23.17.36.36l12.06,17.16h2.34c-.03-.99-.06-1.97-.06-3.06V4.92c0-1.68.2-3.39.99-4.91h-3.43c.46.86.79,1.97.79,4.22v11.63c0,.3,0,.63-.23.63-.2,0-.47-.46-.69-.79l-6.56-9.26c-1.02-1.45-3.13-4.97-3.82-5.9-.4-.53-.69-.53-1.32-.53h-3.33c1,.99,1.05,2.76,1.05,4.38v7.03c0,2.9,0,6.92-1.15,9.62h3.79Z"/>
      <path class="cls-1" d="M122.6,21.03c-1.05-2.47-.99-5.8-.99-8.43V4.13c0-.29.07-.49.2-.49s.23.17.36.36l12.06,17.16h2.34c-.03-.99-.06-1.97-.06-3.06V4.92c0-1.68.2-3.39.99-4.91h-3.43c.46.86.79,1.97.79,4.22v11.63c0,.3,0,.63-.23.63-.2,0-.47-.46-.69-.79l-6.56-9.26c-1.02-1.45-3.13-4.97-3.82-5.9-.4-.53-.69-.53-1.32-.53h-3.33c1,.99,1.05,2.76,1.05,4.38v7.03c0,2.9,0,6.92-1.15,9.62h3.79Z"/>
      <path class="cls-1" d="M144.91,16.71c0,1.48,0,3.2-.72,4.32h4.42c-.73-1.12-.73-2.84-.73-4.32V4.32c0-1.48,0-3.2.73-4.31h-4.42c.72,1.12.72,2.83.72,4.31v12.39Z"/>
      <path class="cls-1" d="M169.16,0c.72,1.15.72,2.86.72,4.35v5.17c0,1.26-.1,2.54-.13,3.79-.1,3.92-1.29,6.32-5.11,6.32s-5.17-2.14-5.27-5.66V4.35c0-1.48,0-3.2.72-4.35h-4.42c.72,1.15.72,2.86.72,4.35v11.6c.1,4.05,2.64,5.6,6.46,5.6,3.07,0,5.07-1.18,6.36-2.28.2-.16.33-.36.39-.36.1,0,.17.04.17.14l-.13,2.17,3.92-.2c-.72-1.09-.72-2.8-.72-4.28V4.35c0-1.48,0-3.2.72-4.35h-4.42.02Z"/>
      <path class="cls-1" d="M198.68,0c-.82,0-1.05.69-1.35,1.39l-5.7,13.74c-.2.47-.3.79-.6.79-.26,0-.36-.56-.53-1.05l-4.88-14.37c-.13-.43-.63-.5-1.02-.5h-4.09c.79.5.83.96.83,1.85v8.24c0,3.56-.13,8.77-1.35,10.51l-.3.43h3.92c-.72-1.09-.72-3.23-.72-5.8l.03-10.71c0-.5,0-1.09.3-1.09s.53.79.89,1.74l6.26,16.18,7.38-17.43c.1-.26.2-.49.42-.49s.23.39.23.72v10.94c0,1.85,0,4.28-.6,5.93h4.85c-.72-1.32-.86-2.83-1.02-4.32-.42-3.95-.26-8.07-.26-12.02,0-1.65-.1-3.43.66-4.68h-3.36.01Z"/>
      <path class="cls-1" d="M41.66,34.71h-4.13v-1.99c0-.63.02-1.27.33-1.82h-1.9c.31.55.32,1.2.32,1.82v5.24c0,.63,0,1.26-.32,1.82h1.9c-.31-.56-.33-1.2-.33-1.82v-2.69h4.13v2.69c0,.63,0,1.26-.32,1.82h1.9c-.31-.56-.32-1.2-.32-1.82v-5.24c0-.63,0-1.27.32-1.82h-1.9c.31.55.32,1.2.32,1.82v1.99Z"/>
      <path class="cls-1" d="M53.24,35.16c0-2.48-1.28-4.48-4.21-4.48s-4.44,2.2-4.44,4.85c0,2.48,1.28,4.48,4.21,4.48s4.43-2.2,4.43-4.85M51.79,35.55c0,2.01-.86,3.85-2.87,3.85-2.25,0-2.87-2.42-2.87-4.26,0-2.01.86-3.85,2.87-3.85,2.25,0,2.87,2.42,2.87,4.26"/>
      <path class="cls-1" d="M58.12,39.79c-.31-.47-.31-1.2-.31-1.83v-6.37h1.53c.57,0,1.42-.1,1.66-.7h-7.01l-.28,1c.35-.27.67-.31.99-.31h1.85v6.37c0,.63,0,1.36-.31,1.83h1.88Z"/>
      <path class="cls-1" d="M63.58,35.48h.35c.86,0,2.44,0,2.93-.8-1.07.1-2.2.1-3.28.1v-3.33h1.3c.82,0,1.58.1,2.07.52l-.06-1.07h-4.87c.31.48.31,1.2.31,1.83v5.24c0,.63-.04,1.35-.34,1.83h4.02c.5,0,.96-.04,1.34-.07l.25-1.28c-.65.58-1.55.79-2.41.79h-1.6v-3.75h0Z"/>
      <path class="cls-1" d="M69.37,36.62c0,.66-.05,2.62-.47,3.16h3.86c.28,0,.57-.01.85-.04l.26-1.31c-.7.69-1.41.8-2.19.8h-1.06v-6.51c0-.63,0-1.36.31-1.83h-1.86c.31.47.31,1.2.31,1.83v3.9h0Z"/>
      <path class="cls-1" d="M74.6,39.52c.64.26,1.72.49,2.4.49,1.56,0,3.25-.98,3.25-2.71,0-2.66-3.99-2.4-3.99-4.55,0-1.04.73-1.53,1.71-1.53s1.3.17,1.94.82v-1.29c-.71,0-1.42-.09-2.15-.09-1.48,0-2.8.8-2.8,2.41,0,2.58,3.99,2.29,3.99,4.63,0,1.11-.8,1.74-1.85,1.74-1.46,0-2.07-.82-2.48-1.41v1.48h-.02Z"/>
      <path class="cls-1" d="M92.6,39.79l-.28-.52c-1.39-2.58-2.28-5.6-3.18-8.38h-1.65v.38c0,1.14-2.88,7.12-3.68,8.13l-.3.39h1.74c-.02-.18-.04-.35-.04-.53,0-.8.63-2.16,1.23-3.37h3.14l1.52,3.9h1.51-.01ZM89.33,35.33h-2.66l1.21-2.98c.02-.07.11-.34.23-.34s.21.24.24.34l.98,2.98Z"/>
      <path class="cls-1" d="M94.84,39.79c-.45-1.04-.42-2.45-.42-3.57v-3.58c0-.12.02-.21.08-.21s.1.07.15.15l5.1,7.26h.99c-.02-.42-.03-.83-.03-1.29v-5.58c0-.71.09-1.44.42-2.08h-1.45c.2.36.33.83.33,1.78v4.92c0,.13,0,.26-.1.26-.08,0-.19-.2-.29-.33l-2.77-3.92c-.44-.61-1.32-2.11-1.62-2.5-.17-.22-.3-.22-.56-.22h-1.41c.42.42.45,1.17.45,1.85v2.97c0,1.23,0,2.93-.48,4.07h1.6v.02Z"/>
      <path class="cls-1" d="M103.9,32.08c0-.22.02-.45.02-.66.31-.05.81-.11,1.33-.11,2.49,0,3.8,1.52,3.8,3.93s-.88,4.04-3.36,4.04c-1.5,0-1.79-.05-1.79-1.06v-6.15h0ZM102.65,37.96c0,.63,0,1.35-.31,1.83.98,0,1.95.05,3.36.05,2.64,0,4.79-1.73,4.79-4.84,0-2.5-1.59-4.25-3.91-4.25-1.42,0-2.83.14-4.24.14.31.47.31,1.2.31,1.82v5.25h0Z"/>
      <path class="cls-1" d="M116.76,31.98c0-.22,0-.46.02-.67h.66c1.24.03,2.04.2,2.04,1.59s-.74,2.05-2.09,2.05c-.21,0-.42-.01-.63-.04v-2.93h0ZM118.66,35.15c1-.4,2.06-1.24,2.06-2.52,0-1.09-.74-1.87-2.16-1.87-1.09,0-2.2.14-3.37.14.31.47.31,1.2.31,1.82v5.16c0,.6.03,1.27-.37,1.91h1.94c-.31-.48-.31-1.2-.31-1.83v-2.51c.8.07.9.31,1.49,1.14l1.7,2.43c.31.45.57.77,1.17.77h1.14c-.57-.53-.77-.75-1.17-1.3l-2.42-3.34h-.01Z"/>
      <path class="cls-1" d="M124.43,35.48h.35c.86,0,2.44,0,2.93-.8-1.07.1-2.2.1-3.28.1v-3.33h1.3c.82,0,1.58.1,2.07.52l-.06-1.07h-4.86c.3.48.3,1.2.3,1.83v5.24c0,.63-.04,1.35-.34,1.83h4.02c.5,0,.96-.04,1.34-.07l.25-1.28c-.65.58-1.55.79-2.42.79h-1.6v-3.75h0Z"/>
      <path class="cls-1" d="M129.34,39.52c.64.26,1.72.49,2.4.49,1.56,0,3.25-.98,3.25-2.71,0-2.66-3.99-2.4-3.99-4.55,0-1.04.73-1.53,1.71-1.53s1.3.17,1.94.82v-1.29c-.71,0-1.42-.09-2.15-.09-1.48,0-2.8.8-2.8,2.41,0,2.58,3.99,2.29,3.99,4.63,0,1.11-.8,1.74-1.86,1.74-1.46,0-2.06-.82-2.48-1.41v1.48h-.01Z"/>
      <path class="cls-1" d="M144.95,35.16c0-2.48-1.28-4.48-4.21-4.48s-4.44,2.2-4.44,4.85c0,2.48,1.28,4.48,4.21,4.48s4.43-2.2,4.43-4.85M143.51,35.55c0,2.01-.86,3.85-2.87,3.85-2.25,0-2.87-2.42-2.87-4.26,0-2.01.86-3.85,2.87-3.85,2.25,0,2.87,2.42,2.87,4.26"/>
      <path class="cls-1" d="M147.87,31.98c0-.22,0-.46.02-.67h.66c1.24.03,2.04.2,2.04,1.59s-.74,2.05-2.09,2.05c-.21,0-.42-.01-.63-.04v-2.93h0ZM149.78,35.15c1-.4,2.06-1.24,2.06-2.52,0-1.09-.74-1.87-2.16-1.87-1.09,0-2.2.14-3.37.14.31.47.31,1.2.31,1.82v5.16c0,.6.03,1.27-.37,1.91h1.94c-.31-.48-.31-1.2-.31-1.83v-2.51c.8.07.9.31,1.49,1.14l1.7,2.43c.31.45.57.77,1.17.77h1.14c-.57-.53-.77-.75-1.17-1.3,0,0-2.43-3.34-2.43-3.34Z"/>
      <path class="cls-1" d="M157.49,39.79c-.31-.47-.31-1.2-.31-1.83v-6.37h1.53c.57,0,1.42-.1,1.66-.7h-7.01l-.28,1c.35-.27.67-.31.99-.31h1.85v6.37c0,.63,0,1.36-.31,1.83h1.88Z"/>
      <path class="cls-1" d="M160.98,39.52c.64.26,1.72.49,2.4.49,1.56,0,3.25-.98,3.25-2.71,0-2.66-3.99-2.4-3.99-4.55,0-1.04.73-1.53,1.71-1.53s1.3.17,1.94.82v-1.29c-.71,0-1.42-.09-2.15-.09-1.48,0-2.8.8-2.8,2.41,0,2.58,3.99,2.29,3.99,4.63,0,1.11-.8,1.74-1.86,1.74-1.46,0-2.06-.82-2.48-1.41v1.48h-.01Z"/>
    </g>
  </g>
</svg>