<?xml version="1.0" encoding="UTF-8"?>
<svg id="Layer_2" data-name="Layer 2" xmlns="http://www.w3.org/2000/svg" viewBox="0 0 150.54 67.59">
  <defs>
    <style>
      .cls-1 {
        fill: #fff;
      }
    </style>
  </defs>
  <g id="Layer_1-2" data-name="Layer 1">
    <g>
      <g>
        <g>
          <path class="cls-1" d="M129.31,64.18c-6.42,6.18-18.04,3.64-20.6-5.14-3.18-10.86,7-19.85,17.34-15.27,7.7,3.41,9.21,14.68,3.26,20.41h0ZM126.74,48.15c-4.92-4.81-13.69-2.1-14.87,4.85-1.24,7.3,4.52,13.44,11.93,10.9,6.14-2.11,7.38-11.41,2.94-15.75Z"/>
          <path class="cls-1" d="M79.95,47.48c-.1.08-.02.41-.49.28-.06-.02-.49-.69-.79-.94-2.49-2.02-8.01-1.25-7.85,2.69.15,3.52,5.76,3.88,8.27,5.13,1.94.97,3.2,2.47,3.38,4.69.58,7.07-6.69,9.74-12.47,7.48-.71-.28-3.29-1.72-3.29-2.49,0-.48,1.99-1.74,2.35-2.24.38-.2,1.03.75,1.39,1.03,1.99,1.53,4.79,1.86,6.92.42,1.58-1.07,2.23-3.74.67-5.13-1.32-1.18-4.71-1.78-6.46-2.6-2.32-1.08-3.97-2.71-4.23-5.39-.67-6.82,7.13-9.41,12.49-6.99.56.25,2.69,1.59,2.21,2.27-.8.5-1.33,1.22-2.09,1.79h0Z"/>
          <path class="cls-1" d="M106.15,63.06c.18.26-.1.86-.31,1.09-4.73,5.25-14.14,4.23-18.19-1.41-7-9.77,1.51-23.16,13.33-19.68,1.01.3,4.37,1.95,4.66,2.91.26.86-1.91,1.89-2.47,2.43-1.18-1.27-2.57-2.21-4.31-2.53-7.29-1.35-11.74,6.16-9.7,12.61,2.02,6.39,10.27,8.11,14.52,2.86l2.46,1.71h.01Z"/>
        </g>
        <g>
          <path class="cls-1" d="M0,43.54c.16-.57,1.1-.25,1.45-.25.98,0,1.97.05,2.94-.11l.68.44c2.23,5.09,4.19,10.3,6.41,15.4.27.62.59,1.52,1.06,1.94l7.3-17.52.51-.18h4.39v23.45s-.24.26-.26.26h-2.75s-.26-.24-.26-.26v-18.98l-1.11,2.41-6.58,16.26c-.2.8-2.23.75-2.59.29l-7.75-18.44v18.12c0,.06-.39.6-.43.6H.26s-.26-.24-.26-.26v-23.18h0Z"/>
          <path class="cls-1" d="M33.33,46.37v6.87h10.91s.26.24.26.26v2.83h-10.91s-.26.24-.26.26v7.04s.24.26.26.26h12.2c.43,0,.29,2.64.09,3.09h-15.55c-.08,0-.31-.38-.35-.51-.28-.88.08-1.68.1-2.49.15-5.72.12-11.81,0-17.53,0-.66-.46-2.65.03-3.13s2.33-.04,2.96-.03c2.92.06,6.03.07,8.95,0,.48,0,3.34-.53,3.34.25v2.58s-.24.26-.26.26h-11.77Z"/>
          <path class="cls-1" d="M53.26,46.37v7.21h10.57s.26.24.26.26v2.83c-.17-.06-.38.17-.43.17h-10.39v9.96c-.17-.06-.38.17-.43.17h-2.83v-23.58c.39-.63,2.5-.12,3.17-.1,2.91.07,6.04.08,8.95,0,.77-.02,1.47-.38,2.32-.1.13.04.51.28.51.35v2.58s-.24.26-.26.26h-11.44Z"/>
        </g>
      </g>
      <g>
        <path class="cls-1" d="M146.32,5.57c1.7,1.11,3.89,3.95,4.17,6.05.28,2.1-.68,5.09-2.31,6.6-.42.03-.21-.05-.13-.3.94-2.65,1.76-4.22.64-7.08-.79-2.02-3.29-4.53-5.51-4.79-6.42-.76-7.98,6.52-2.63,9.32,2.64,1.39,4.65,1.6,6.37,4.45,4.15,6.88-3.35,13.76-8.63,17.19-2.5,1.62-5.2,3.03-8.06,3.88,1.56-1.31,3.38-2.28,5.04-3.46,3.84-2.74,10.72-8.41,10.43-13.62-.25-4.47-4-4.32-6.93-6.3-4.03-2.73-6.13-7.77-1.92-11.47,2.83-2.49,6.39-2.47,9.47-.46h0Z"/>
        <path class="cls-1" d="M131.95,9.97c.24.29-.09.3-.22.38-1.06.64-1.23.82-1.87,1.91-1.36,2.3-2.11,5.6-5.65,4.85-.58-.12-2.07-.9-2.04-1.56.04-1.01,1.65-2.95,2.5-3.49l1.95-.88c-.8-.11-1.63.3-2.29.71-1.02.64-1.56,1.58-2.34,2.44-.64.71-.74-.87-.7-1.35.33-3.82,5.27-4.44,8.26-3.78.31.07,2.32.68,2.4.78h0Z"/>
        <g>
          <path class="cls-1" d="M137.45,4.47l-3.15-1.75c-9.28-4.17-16.49,3.76-13.18,13,2.67,7.46,9.78,12.66,16.15,16.83-.64.21-1.51-.2-2.15-.43-9.23-3.32-20.19-15.32-15.69-25.65,3.2-7.34,13.61-9.01,18.02-2Z"/>
          <path class="cls-1" d="M118.2,14.78c-1.02-.28-1.76-1.26-2.92-1.03l1.38.59c3.19,1.54-.26,4.02-2.49,2.15-.66-.55-1.26-1.65-1.86-2.18-.24-.21-.78-.26-.98-.65,1.74-1.92,6.89-2.32,6.87,1.12Z"/>
        </g>
      </g>
    </g>
  </g>
</svg>