<?xml version="1.0" encoding="UTF-8"?>
<svg id="Layer_2" data-name="Layer 2" xmlns="http://www.w3.org/2000/svg" viewBox="0 0 177.71 31.93">
  <defs>
    <style>
      .cls-1 {
        fill: #fff;
      }
    </style>
  </defs>
  <g id="Layer_1-2" data-name="Layer 1">
    <g>
      <path class="cls-1" d="M167.23,8.57c.35,1.38.69,3.11.74,3.63.04-.52.39-1.99.78-3.63l1.95-7.96h7.01l-6.49,20.07v10.64h-6.83v-10.69l-6.49-20.03h7.53l1.82,7.96h-.02Z"/>
      <path class="cls-1" d="M154.53,31.32l-.82-5.54h-5.37l-.82,5.54h-6.58l5.71-30.72h9.22l5.75,30.72h-7.09ZM149.17,19.99h3.72l-1.39-9.52c-.22-1.38-.43-3.16-.48-3.68-.04.52-.22,2.03-.48,3.68l-1.38,9.52h.01Z"/>
      <polygon class="cls-1" points="132.61 .61 132.61 25.53 139.62 25.53 139.62 31.33 125.77 31.33 125.77 .61 132.61 .61"/>
      <path class="cls-1" d="M106.49,31.32V.6h9.78c4.72,0,8.18,4.11,8.18,9.52s-3.46,9.48-8.65,9.48h-2.47v11.73h-6.84ZM113.28,14.45h1.47c2.08,0,3.03-2.08,3.03-4.37,0-2.55-.95-4.33-3.03-4.33h-1.47v8.7Z"/>
      <path class="cls-1" d="M88.35,31.93c-6.14,0-9.69-5.28-9.69-15.96S82.21.01,88.35.01s9.69,5.28,9.69,15.96-3.55,15.96-9.69,15.96M85.75,15.96c0,8.48.95,10.47,2.6,10.47s2.6-1.99,2.6-10.47-.95-10.47-2.6-10.47-2.6,1.99-2.6,10.47"/>
      <path class="cls-1" d="M67.81,13.93h9.35v17.39h-4.89l-.39-2.55c-1.17,2.08-2.73,3.07-4.89,3.07-5.32,0-8.44-6.27-8.44-15.92S61.49,0,68.41,0c5.37,0,7.62,4.15,8.7,7.96l-5.67,2.21c-1.3-3.59-2.03-4.67-3.07-4.67-1.95,0-2.72,2.6-2.72,10.39s.82,10.43,2.77,10.43c1.82,0,2.68-3.29,2.68-6.19v-.39h-3.29v-5.8h0Z"/>
      <path class="cls-1" d="M49.91,15.19c.39,1.38.78,3.07.95,3.59-.04-.56-.09-2.03-.09-3.72V.61h6.27v30.72h-7.27l-4.28-15.32c-.39-1.38-.78-3.07-.95-3.59.04.56.09,2.03.09,3.72v15.19h-6.27V.61h7.44l4.11,14.58h0Z"/>
      <path class="cls-1" d="M29.76,31.32l-.82-5.54h-5.37l-.82,5.54h-6.58L21.88.6h9.22l5.76,30.72h-7.1ZM24.4,19.99h3.72l-1.38-9.52c-.22-1.38-.43-3.16-.48-3.68-.04.52-.22,2.03-.48,3.68l-1.38,9.52Z"/>
      <path class="cls-1" d="M9.33,8.57c.35,1.38.69,3.11.74,3.63.04-.52.39-1.99.78-3.63l1.95-7.96h7.01l-6.49,20.07v10.64h-6.83v-10.69L0,.6h7.53l1.82,7.96h-.02Z"/>
    </g>
  </g>
</svg>