<?xml version="1.0" encoding="UTF-8"?>
<svg id="Layer_2" data-name="Layer 2" xmlns="http://www.w3.org/2000/svg" viewBox="0 0 107.9 43.08">
  <defs>
    <style>
      .cls-1 {
        fill: #fff;
      }
    </style>
  </defs>
  <g id="Layer_1-2" data-name="Layer 1">
    <g>
      <path class="cls-1" d="M47.89,23.01c.15-5.37,1.16-11.15,1.5-16.99.16-2.75-.77-3.96-3.42-4.59-.48-.11-1.16,0-1.1-.75.05-.69.71-.64,1.2-.64,2.44-.01,4.89-.09,7.32.03,2.49.13,3.82,1.63,3.76,4.1-.06,2.16-.2,4.31-.37,6.46-.12,1.42.34,1.51,1.54,1,6.28-2.67,13.62-.13,16.59,5.92,2.26,4.6,2.22,9.46.57,14.25-3.21,9.3-12.34,13.54-21.5,10.09-2.93-1.1-4.91-3.18-6.23-5.95-.23-.5-.69-1.14-.16-1.56.61-.5,1,.25,1.38.61,2.33,2.22,5.19,3.26,8.31,3.54,4.63.42,8.87-2.12,10.92-6.62,2.04-4.48,2.35-9.08.34-13.7-1.28-2.93-3.51-4.54-6.76-4.57-3.29-.04-5.22,1.66-5.56,4.96-.37,3.56-.71,7.12-1,10.68-.11,1.37.06,2.73,1,3.86.32.38.81.76.5,1.32s-.94.59-1.51.61c-3.35.15-6.59-2.57-7.26-5.99-.36-1.87-.2-3.74-.04-6.09"/>
      <path class="cls-1" d="M80.02,26.32c-.32-8.37,5.74-14.5,12.71-16.45,4.93-1.38,9.66-1.17,14,1.86.47.33,1.55.58,1.04,1.45-.39.66-1.16.05-1.68-.15-7.54-2.97-14.97,2.49-16.82,7.86-1.93,5.6-.97,12.18,4.85,15.71,3.75,2.27,7.61,2.27,11.59.74.21-.08.4-.22.61-.3.48-.17,1.04-.41,1.38.13.29.47-.17.84-.48,1.15-2.22,2.31-5.05,3.48-8.12,3.94-7.05,1.05-14.64-2.14-17.97-9.64-.63-1.43-1.11-3.91-1.12-6.31"/>
      <path class="cls-1" d="M19.66,9.61h2.73c2.9,0,4.55,1.76,4.3,4.65-.58,6.67-1.2,13.34-1.8,20.01-.05.62-.11,1.25-.14,1.87-.14,2.88.35,3.56,3.08,4.45.5.17,1.34.1,1.23.87-.09.65-.84.69-1.4.7-2.22.02-4.44.09-6.64-.02-2.3-.11-3.81-1.72-3.66-4.06.28-4.31.75-8.6,1.14-12.9.29-3.16.65-6.32.84-9.49.17-2.65-.62-3.72-3.07-4.64-.5-.19-1.29-.18-1.14-.97.13-.67.83-.44,1.31-.45,1.08-.03,2.16,0,3.24,0h0l-.02-.02Z"/>
      <path class="cls-1" d="M34.31,9.6c1.02,0,2.04-.05,3.06,0,2.78.15,4.16,1.63,3.96,4.43-.41,5.48-.92,10.96-1.39,16.44-.17,1.97-.38,3.95-.52,5.93-.17,2.43.52,3.32,2.88,4.09.57.19,1.67.05,1.52.96-.15.89-1.18.71-1.88.65-2.04-.16-4.08.19-6.12-.07-2.45-.3-3.78-1.48-3.72-3.96.08-2.95.41-5.88.68-8.81.39-4.24.81-8.47,1.22-12.7.33-3.49-.19-4.35-3.44-5.66-.42-.17-.96-.28-.83-.87.11-.47.61-.45,1-.45,1.19,0,2.38,0,3.58,0h0v.02Z"/>
      <path class="cls-1" d="M4.43,9.68c1.19,0,2.39-.11,3.57.02,2.56.28,3.84,2.05,3.61,4.61-.65,7.23-1.3,14.45-1.86,21.69-.25,3.34,0,3.56,3.14,4.63.45.15,1.19.15,1.14.8-.05.72-.8.73-1.34.74-2.27.02-4.54.07-6.81-.05-2.29-.12-3.64-1.6-3.59-3.9.11-4.6.78-9.15,1.19-13.73.26-2.88.63-5.75.8-8.63.19-3.22-.15-3.63-3.13-4.79-.49-.18-1.31-.14-1.12-.97.15-.6.84-.46,1.33-.47,1.02-.02,2.04,0,3.06,0v.04h0Z"/>
    </g>
  </g>
</svg>