<?xml version="1.0" encoding="UTF-8"?>
<svg id="Layer_2" data-name="Layer 2" xmlns="http://www.w3.org/2000/svg" viewBox="0 0 144.92 25.16">
  <defs>
    <style>
      .cls-1 {
        fill: #fff;
      }
    </style>
  </defs>
  <g id="Layer_1-2" data-name="Layer 1">
    <path class="cls-1" d="M16.64,0h5.78v25.15h-11.25L5.78.22v24.93H0V0h11.28l5.35,24.93V0h0ZM40.93,0h-11.35l-5.28,25.15h5.71l1.04-4.99h8.41l1.04,4.99h5.71L40.93,0h0ZM32.02,15.67L35.25.22l3.23,15.45h-6.47.01ZM59.54,15.06L68.2.01h-6.43l-7.29,12.72V.01h-6.4v25.15h6.4v-9.67h3.95l3.34,9.66h6.47l-3.48-10.09h-5.22ZM83.86,9.81h-4.38l-2.88,4.63V0h-6.39v25.15h6.4v-10.42h7.26v10.42h6.4V0h-6.4v9.81h-.01ZM93.34,25.15h15.92v-4.67h-9.52v-5.86h7.61v-4.67h-4.92l-2.69,4.31V4.67h9.52V0h-15.92v25.15h0ZM111.77,25.15h15.91v-4.67h-9.52v-5.86h7.61v-4.67h-4.92l-2.69,4.31V4.67h9.52V0h-15.92v25.15h0ZM136.59,20.48V0h-6.4v25.15h14.73v-4.67h-8.34.01Z"/>
  </g>
</svg>