<?xml version="1.0" encoding="UTF-8"?>
<svg id="Layer_2" data-name="Layer 2" xmlns="http://www.w3.org/2000/svg" viewBox="0 0 173.88 64.37">
  <defs>
    <style>
      .cls-1 {
        fill: #fff;
      }
    </style>
  </defs>
  <g id="Layer_1-2" data-name="Layer 1">
    <g>
      <path class="cls-1" d="M64.03,4.29h.17l-3.67-3.66c-.08-.08-.19-.12-.3-.12h-9.23l3.79,3.79h9.24Z"/>
      <path class="cls-1" d="M68.26,17.97v-9.5s-.01-.08-.02-.11c0-.02,0-.03-.02-.04-.02-.04-.05-.08-.08-.12l-3.08-3.07h-10.43c-.11,0-.22-.05-.3-.12l-4.51-4.5h-17.97l-19.68.24c-.17,0-.31-.1-.39-.25-.19-.36-.6-.58-1.06-.47-.32.08-.58.34-.67.65-.16.62.3,1.18.9,1.18.36,0,.67-.21.83-.51.08-.15.22-.25.39-.25l19.68.23,2.98,2.97-13.24.22c-.17,0-.31-.1-.39-.25-.19-.36-.6-.58-1.06-.47-.32.08-.58.34-.67.65-.16.62.3,1.18.9,1.18.36,0,.67-.21.83-.5.08-.15.22-.25.39-.25l13.82.24v8.64h-11.24c-.11,0-.22.05-.3.12l-3.69,3.68-8.03.23c-.16,0-.29-.09-.36-.23-.18-.37-.6-.6-1.07-.49-.32.08-.58.34-.67.65-.16.62.3,1.18.9,1.18.37,0,.69-.22.84-.53.07-.14.2-.23.36-.23,3.56.1,7.39.21,7.79.23v8.67l-8.63.11c-.05-2.14-.14-4.27-.26-6.41,0,0,0-.21-.1-.21s-.1.21-.1.21c-.12,2.14-.2,4.28-.26,6.42l-8.44.11c-.17,0-.31-.1-.39-.25-.19-.36-.6-.58-1.06-.47-.32.08-.58.34-.67.65-.16.62.3,1.18.9,1.18.36,0,.67-.21.83-.5.08-.15.22-.25.39-.25l8.43.11c-.06,2.98-.06,5.96,0,8.94l-3.41.06c-.17,0-.31-.1-.39-.25-.19-.36-.6-.58-1.06-.47-.32.08-.58.34-.67.65-.16.62.3,1.18.9,1.18.36,0,.67-.21.83-.5.08-.15.22-.25.39-.25l3.41.06c.05,2.15.13,4.31.26,6.46,0,0,0,.21.11.21s.11-.21.11-.21c.12-2.15.2-4.3.26-6.45l8.63.16v8.66l-7.79.23c-.16,0-.29-.09-.36-.23-.18-.37-.6-.6-1.07-.49-.32.08-.58.34-.67.65-.16.62.31,1.18.9,1.18.37,0,.69-.22.84-.53.07-.14.2-.23.36-.23,3.56.1,8.04.24,8.04.24l3.67,3.67c.08.08.19.12.3.12h11.48l2.96,2.96-17.03.24c-.17,0-.31-.1-.39-.25-.19-.36-.6-.58-1.06-.47-.32.08-.58.34-.67.65-.16.62.3,1.18.9,1.18.36,0,.67-.21.83-.51.08-.15.22-.25.39-.25l17.61.24v8.63l-27.02.24c-.17,0-.31-.1-.39-.25-.19-.36-.6-.58-1.06-.47-.32.08-.58.34-.67.65-.16.62.3,1.18.9,1.18.36,0,.68-.21.83-.51.08-.15.22-.25.39-.25l27.44.24h18.82c.11,0,.22-.04.3-.13l9.41-9.47c.08-.08.12-.19.12-.29v-18.94h0c0-.11-.04-.22-.12-.3l-3.08-3.07h-10.85v8.03l-2.96-2.95v-8.28l2.37,2.37h10.59l-2.96-2.96h-10.42c-.11,0-.22-.05-.3-.12l-4.51-4.5h-8.47s-.04,0-.06.02h-.02s-.02.02-.03.02c-.02,0-.04.02-.05.03-.02,0-.03.03-.05.04-.02.02-.03.03-.04.05s-.02.03-.03.05c0,0-.02.02-.02.03v.02s-.01.04-.02.06v9.55c0,.11.05.22.12.3l3.79,3.79c.08.08.19.12.3.12h9.23l3.56,3.55v8.88h-29.9l-3.56-3.55v-18.73s.01-.03,0-.05v-9.3l3.56-3.55h30.13l3.67,3.66s.08.07.14.09c.05.02.11.03.16.03h9.41c.23,0,.42-.19.42-.42v.04ZM19.94,36.51l-8.62.16c.06-2.97.06-5.95,0-8.92l8.62.11s0,8.65,0,8.65ZM58.85,62.43v-8.03h7.98l-7.98,8.03ZM58.85,35.45h8.57v8.63h-8.57v-8.63ZM58.85,44.92h8.57v8.63h-8.57v-8.63ZM41,35.91l-2.96-2.95v-8.28l2.96,2.95v8.28ZM50.41,36.5h-8.57v-8.63h8.57v8.63ZM48.6,63.02h-8.57v-8.63h8.57v8.63ZM58.01,63.02h-8.57v-8.63h8.57v8.63ZM55.05,32.26l2.96,2.95v8.28l-2.96-2.95v-8.28ZM55.05,41.73l2.96,2.95v8.28l-2.96-2.95v-8.28ZM54.46,50.61l2.96,2.95h-8.22l-2.96-2.95h8.22ZM45.05,50.61l2.96,2.95h-8.22l-2.96-2.95h8.22ZM33.03,1.34h8.22l2.44,2.43.52.51h-8.22l-2.96-2.95h0ZM44.8,13.76h-8.57V5.13h8.57v8.63ZM54.21,13.76h-8.57V5.13h8.57v8.63ZM58.01,16.96l-2.96-2.95V5.73l2.96,2.95v8.28ZM67.42,17.55h-8.57v-8.63h8.57v8.63Z"/>
      <path class="cls-1" d="M101.17,27.49s-.01.06-.03.08c-.02.02-.05.03-.08.03h-2.15s-.05-.01-.07-.03-.03-.05-.03-.08v-9.61h-1.29c-.43,0-.75.23-.95.68l-3.17,8.97s-.05.07-.09.07h-1.75s-.07-.03-.09-.07l-3.16-8.97c-.21-.45-.53-.68-.95-.68h-1.29v9.61s-.01.06-.03.08c-.02.02-.05.03-.08.03h-2.15s-.05-.01-.07-.03-.03-.05-.03-.08v-11.52s.01-.06.03-.08.04-.03.07-.03h4.32c.08,0,.15,0,.24,0,.44.06.84.22,1.17.51.33.28.57.64.72,1.07l2.18,6.24,2.17-6.24c.15-.43.4-.79.73-1.07s.72-.45,1.17-.5c.08,0,.15,0,.22,0h4.32s.06,0,.08.03.03.05.03.08v11.52h.01Z"/>
      <path class="cls-1" d="M107.04,27.51s-.01.05-.03.07-.05.03-.08.03h-2.15s-.05-.01-.07-.03-.03-.04-.03-.07v-11.53s.01-.06.03-.08.04-.03.07-.03h2.15s.06,0,.08.03.03.05.03.08v11.53Z"/>
      <path class="cls-1" d="M124.99,15.98s.01-.06.03-.08.05-.03.08-.03h2.15s.05,0,.07.03.03.05.03.08v11.53s-.01.05-.03.07-.04.03-.07.03h-4.39c-.9-.03-1.61-.4-2.13-1.14l-5.46-8.12c-.23-.3-.51-.44-.85-.44h-1.5v9.61s-.01.05-.03.07-.05.03-.08.03h-2.15s-.05-.01-.07-.03-.03-.04-.03-.07v-11.53s.01-.06.03-.08.04-.03.07-.03h4.39c.9.03,1.61.41,2.13,1.15l5.46,8.11c.22.3.5.46.85.46h1.5v-9.61h0Z"/>
      <path class="cls-1" d="M133.22,27.51s-.01.05-.03.07-.05.03-.08.03h-2.15s-.05-.01-.07-.03-.03-.04-.03-.07v-11.53s.01-.06.03-.08.04-.03.07-.03h2.15s.06,0,.08.03.03.05.03.08v11.53Z"/>
      <path class="cls-1" d="M151.17,15.98s0-.06.03-.08c.02-.02.05-.03.08-.03h2.15s.05,0,.07.03.03.05.03.08v11.53s-.01.05-.03.07-.04.03-.07.03h-4.39c-.9-.03-1.61-.4-2.13-1.14l-5.46-8.12c-.23-.3-.51-.44-.85-.44h-1.5v9.61s-.01.05-.03.07-.05.03-.08.03h-2.15s-.05-.01-.07-.03-.03-.04-.03-.07v-11.53s.01-.06.03-.08.04-.03.07-.03h4.39c.9.03,1.61.41,2.13,1.15l5.46,8.11c.22.3.5.46.85.46h1.5v-9.61h0Z"/>
      <path class="cls-1" d="M159.68,18.18c.2-.2.43-.3.72-.3h13.32s.06,0,.08-.03.03-.04.03-.07v-1.8s-.01-.06-.03-.08-.05-.03-.08-.03h-13.32c-.93,0-1.73.32-2.38.98-.65.65-.98,1.44-.98,2.38v5.02c0,.93.33,1.72.98,2.38.66.65,1.45.98,2.38.98h10.4c.84,0,1.55-.29,2.14-.89.59-.59.89-1.3.89-2.13v-3.92s0-.06-.03-.08c-.02-.02-.04-.03-.07-.03h-6.8s-.06,0-.08.03-.03.05-.03.08v2.14s0,.05.03.06c.02.02.05.03.08.03h4.55v1.68c0,.27-.1.51-.3.71s-.44.3-.71.3h-10.07c-.28,0-.52-.1-.72-.3s-.29-.44-.29-.71v-5.7c0-.27.1-.51.29-.71h0Z"/>
      <path class="cls-1" d="M136.57,38.24c0,.97-.26,1.84-.77,2.61-.51.77-1.19,1.35-2.05,1.73l.07.13,2.66,5.58s0,.09-.01.13c-.02.05-.06.07-.12.07h-3.4c-.06,0-.1-.03-.13-.08l-2.58-5.4h-14.23v5.35s-.02.06-.04.09c-.03.03-.06.04-.11.04h-3.06s-.07-.02-.09-.04c-.03-.03-.04-.06-.04-.09v-16.43s.02-.08.04-.11c.03-.03.06-.04.09-.04h19c1.32,0,2.44.46,3.37,1.4.93.93,1.4,2.06,1.4,3.39v1.67h0ZM116.01,40.15h15.79c.39,0,.72-.14,1-.42s.42-.62.42-1.02v-2.62c0-.39-.14-.72-.42-1.01-.28-.28-.61-.42-1-.42h-15.79v5.48h0Z"/>
      <path class="cls-1" d="M144.94,48.37s-.01.06-.04.09-.06.04-.11.04h-3.06s-.07-.02-.09-.04c-.03-.03-.04-.06-.04-.09v-16.43s.02-.08.04-.11c.03-.03.06-.04.09-.04h3.06s.08.02.11.04c.03.03.04.06.04.11v16.43Z"/>
      <path class="cls-1" d="M87.48,35.07c.28-.28.62-.43,1.02-.43h18.99s.08-.02.11-.04c.03-.03.04-.06.04-.09v-2.57s-.02-.08-.04-.11c-.03-.03-.06-.04-.11-.04h-18.99c-1.33,0-2.46.46-3.39,1.4-.93.93-1.4,2.06-1.4,3.39v7.16c0,1.32.46,2.45,1.4,3.39.93.93,2.06,1.4,3.39,1.4h14.82c1.19,0,2.21-.42,3.06-1.26.84-.84,1.27-1.85,1.27-3.03v-5.58s-.02-.08-.04-.11c-.03-.03-.06-.04-.09-.04h-9.76s-.08.02-.11.04c-.03.03-.04.06-.04.11v3.06s.02.07.04.09c.03.03.06.04.11.04h6.55v2.39c0,.39-.14.73-.43,1.01-.28.28-.62.43-1.01.43h-14.35c-.4,0-.74-.14-1.02-.43-.28-.28-.42-.62-.42-1.01v-8.12c0-.39.14-.73.42-1.01h0l-.02-.04Z"/>
      <path class="cls-1" d="M169.09,31.79c1.33,0,2.46.46,3.39,1.4.94.93,1.4,2.06,1.4,3.39v7.16c0,1.32-.46,2.45-1.4,3.39-.93.93-2.06,1.4-3.39,1.4h-18.98s-.07-.02-.09-.04c-.03-.03-.04-.06-.04-.11v-16.41s.01-.08.04-.11.06-.04.09-.04h18.98v-.03ZM170.53,36.08c0-.39-.14-.73-.42-1.01s-.62-.43-1.02-.43h-15.77v11h15.77c.4,0,.74-.14,1.02-.43.28-.28.42-.62.42-1.01v-8.12h0Z"/>
    </g>
  </g>
</svg>