<?xml version="1.0" encoding="UTF-8"?>
<svg id="Layer_2" data-name="Layer 2" xmlns="http://www.w3.org/2000/svg" viewBox="0 0 241.1 43.61">
  <defs>
    <style>
      .cls-1 {
        fill: #fff;
        fill-rule: evenodd;
      }
    </style>
  </defs>
  <g id="Layer_1-2" data-name="Layer 1">
    <path class="cls-1" d="M72.58.01c4.16,7.28,8.41,14.51,12.6,21.77h-4.03c-1.03-1.86-2.05-3.73-3.08-5.6h-10.95c-1.03,1.86-2.06,3.73-3.08,5.59h-3.96c4.17-7.26,8.33-14.52,12.5-21.77M71.35,8.68c-.95,1.7-1.94,3.38-2.9,5.07h8.36c-1.46-2.75-3.25-5.36-4.17-8.37-.44,1.1-.8,2.23-1.29,3.3M99.38.57c2.84-.8,6.02-.67,8.69.65.96.45,1.66,1.26,2.37,2.01-1.05.44-2.1.88-3.15,1.32-.77-.7-1.58-1.45-2.61-1.72-1.43-.35-3.04-.26-4.33.49-1.25.7-1.57,2.53-.76,3.68.62.87,1.54,1.49,2.55,1.82,2.27.9,4.68,1.56,6.74,2.93.72.48,1.47,1.01,1.85,1.82.54,1.12.61,2.43.38,3.63-.51,2.12-2.2,3.92-4.29,4.55-1.94.6-4.03.68-6.04.47-1.75-.23-3.58-.76-4.87-2.02-.69-.65-1.13-1.5-1.58-2.32,1.02-.38,2.04-.77,3.07-1.15.66,1.28,1.81,2.3,3.23,2.63,1.81.43,3.95.39,5.46-.81.96-.72,1.44-2.04,1.06-3.19-.33-1.09-1.29-1.85-2.32-2.26-2.27-.91-4.55-1.77-6.83-2.66-.92-.34-1.78-.94-2.28-1.81-.64-1.12-.77-2.48-.57-3.74.43-2.09,2.2-3.75,4.22-4.33M161.05.13c-7.77,0-14.07,4.97-14.07,11.1s6.3,11.1,14.07,11.1,14.07-4.97,14.07-11.1S168.82.13,161.05.13M161.05,2.86c-5.55,0-10.05,3.75-10.05,8.37s4.5,8.37,10.05,8.37,10.05-3.74,10.05-8.37-4.5-8.37-10.05-8.37M24.8,2.29c.91-.36,1.65-1.05,2.38-1.7-.14,1.27-.43,2.53-.48,3.8.21,1.37.33,2.79,0,4.16-.27.96-.2,1.99.06,2.95.39,1.14,1.71,1.72,2.85,1.46,2.03-.36,4.08-.72,6.03-1.44.77-.3,1.6.02,2.39-.16.45-.07.84-.33,1.22-.56.46-.32,1.08-.21,1.54-.52,2.1-1.46,3.58-3.77,4.02-6.3.14.02.42.05.56.06.17.4.08.86.13,1.28.68-.38.51-1.36.59-2.02.22-.05.64-.23.72.09.2,1.02-.15,2.04-.32,3.04l.15.31c.28-.33.37-.75.43-1.17.7-.12.4.63.51,1.04.15.43.51.8.49,1.28.05.75-.71,1.29-.59,2.05.21.47.72.87.55,1.45-.05.68-.56,1.17-.86,1.75-.27.49.06,1.03.03,1.55-.1.55-.6.88-.91,1.31-.37.48-.37,1.13-.62,1.67-.4.55-1.09.87-1.3,1.55-.45,1.39-1.58,2.39-2.62,3.35-2.45,2.13-5.22,3.93-8.25,5.12-1.66.6-3.56,1.12-5.26.38.06.49.02.98-.11,1.45,2.16,1.62,4.44,3.1,6.64,4.66.54.41,1.34.72,1.4,1.49,0,1.17-.63,2.2-1.18,3.2-1.31,2.43-3.79,4.13-6.49,4.63-1.09.14-2.18.1-3.28.08-1.08.01-2.25-.67-2.55-1.74-.53-3.43-.69-6.91-.59-10.38-1.74-1.6-3.08-3.65-3.68-5.95-.55.5-1.04,1.12-1.81,1.28-1.4.22-2.86.06-4.16-.53-3.15-1.34-5.92-3.67-7.57-6.69-.41-.66-.41-1.52-1.01-2.05-.48-.43-.42-1.12-.61-1.68-.24-.35-.62-.61-.76-1.03-.04-.32-.02-.63-.04-.95-.24-.4-.75-.69-.69-1.23.05-.86-.69-1.42-.97-2.17-.25-.59-.27-1.24-.25-1.87-.81-.75-.48-1.84-.2-2.74-.27-.58-.53-1.24-.11-1.83-.24-.59-.02-1.19.45-1.58.24.77.19,1.99,1.14,2.26-.14-1.06-.77-2.07-.52-3.18.05-.39.8-.36.75.04-.09,1.15.17,2.36.9,3.28,1.17,1.41,2.72,2.52,4.45,3.14,1.29.46,2.58.94,3.82,1.53,1.62.75,3.11,1.76,4.75,2.47,1.4.69,3.17-.59,3.13-2.11.3-1.73.84-3.43,1.62-5,.82-1.47,2.43-2.29,4.03-2.58M123.97.59h14.43v2.52h-10.62v5.89h10.62v2.57h-10.62v10.2h-3.81V.58M187.96.59h3.82v12.88c0,1.76.6,3.59,1.91,4.81,1.46,1.2,3.46,1.32,5.27,1.33,2.07-.02,4.37-.59,5.66-2.34,1.04-1.37,1.16-3.16,1.11-4.82V.6h3.81v13.48c-.02,1.93-.53,3.95-1.86,5.4-1.44,1.58-3.57,2.31-5.63,2.62-2.19.3-4.42.31-6.6,0-2.1-.32-4.27-1.07-5.7-2.72-1.32-1.5-1.77-3.56-1.77-5.52V.6M223.56.59c3.25.08,6.54-.22,9.77.31,1.73.32,3.71.95,4.5,2.68.83,1.98.76,4.47-.52,6.25-1.28,1.59-3.47,1.89-5.36,2.19,3.05,3.25,6.11,6.49,9.15,9.75h-4.21c-2.98-3.24-5.96-6.48-8.95-9.71h-.79v9.71h-3.59V.58h0ZM227.35,3.11v6.73c1.86-.08,3.82.31,5.59-.46.79-.29,1.29-1.06,1.41-1.88.24-1.31.01-3.03-1.33-3.67-1.78-.77-3.77-.69-5.67-.73M79.8,33.23c2.34-.74,5-.56,7.14.68-.05.75-.1,1.5-.15,2.25-1.05-.51-2.08-1.16-3.27-1.25-1.34-.13-2.84.09-3.84,1.06-.72.65-1.09,1.64-.97,2.6.13,1.25,1.12,2.28,2.28,2.69,1.14.39,2.41.35,3.55-.01.8-.28,1.51-.75,2.26-1.14v2.5c-1.86,1.04-4.07,1.21-6.13.78-1.36-.33-2.65-1.05-3.56-2.13-1.16-1.37-1.4-3.41-.64-5.02.66-1.39,1.86-2.56,3.35-3.02M148.81,33.93c1.22-1.29,3.24-1.33,4.85-.91,1.05.23,1.79,1.04,2.53,1.75-.77.31-1.54.63-2.31.94-.52-.46-1.1-1-1.85-.91-.47.03-1.16.13-1.26.69-.14.5.32.91.72,1.11,1.44.64,3.16.95,4.23,2.2,1.11,1.65-.01,4.05-1.86,4.54-1.46.38-3.12.4-4.51-.24-.91-.4-1.39-1.32-1.86-2.13.72-.26,1.45-.53,2.17-.8.57,1.25,2.2,1.76,3.38,1.06.62-.32.61-1.28-.01-1.6-1.21-.63-2.56-.96-3.79-1.57-1.45-.79-1.56-3.03-.43-4.14M102.06,33.01c1.61.04,3.24-.11,4.84.14.94.16,1.99.54,2.4,1.47.44,1.04.38,2.36-.32,3.27-.45.57-1.17.79-1.84.98,1.42,1.5,2.82,3,4.23,4.51h-3.09c-1.25-1.35-2.49-2.71-3.74-4.07v4.07h-2.48v-10.37M104.65,35.01v2.16c.69-.03,1.44.09,2.06-.28.34-.42.34-1.13-.04-1.52-.61-.35-1.34-.3-2.02-.35M123.19,33.01h2.85c.94,1.25,1.89,2.49,2.84,3.74.96-1.26,1.96-2.49,2.94-3.74h2.79c-1.49,1.91-2.98,3.82-4.47,5.73v4.64h-2.6v-4.64c-1.45-1.91-2.91-3.82-4.36-5.73M169.84,33.01h8.95v2.01h-3.18v8.36h-2.6v-8.36h-3.18v-2.01h.01ZM217.7,33.01h2.59v8.31h4.37v2.06h-6.96v-10.37h0ZM197.74,40.87h2.13c.46.84.92,1.67,1.38,2.51h2.78c-1.84-3.21-3.68-6.42-5.52-9.63-.32-.54-.52-1.13-.74-1.72l-.12-.32-.15.41c-.2.56-.4,1.11-.7,1.62-1.85,3.21-3.68,6.42-5.52,9.63h2.78c.46-.84.92-1.67,1.38-2.51h2.3ZM197.57,38.91h-1.05c.37-.66.76-1.3,1.09-1.98.01-.03.03-.06.04-.08.02.03.03.06.04.08.32.68.72,1.33,1.09,1.98h-1.22,0Z"/>
  </g>
</svg>