<?xml version="1.0" encoding="UTF-8"?>
<svg id="Layer_2" data-name="Layer 2" xmlns="http://www.w3.org/2000/svg" viewBox="0 0 182.9 51.9">
  <defs>
    <style>
      .cls-1 {
        fill: #fff;
      }
    </style>
  </defs>
  <g id="Layer_1-2" data-name="Layer 1">
    <g>
      <path class="cls-1" d="M61.8,20.23c-1.78,0-3.32-.31-3.9-.45l-.08-.03V2.71h3.98c5.52,0,9.37,3.51,9.37,8.53.03,5.1-4.03,8.98-9.37,8.98h0ZM54.81,21.75l.16.05c.16.05,3.8,1.18,6.86,1.18,3.22,0,6.49-1.31,9-3.61,2.25-2.07,3.51-4.92,3.51-8.03s-1.23-5.99-3.48-8.06h0C68.58,1.19,65.36.01,61.83.01h-7.01v21.75h0Z"/>
      <path class="cls-1" d="M89.99,13.11h-10.55l.03-.1c.45-3.04,2.59-5.05,5.31-5.05,2.22,0,4.76,1.34,5.21,5.05v.1h0ZM84.83,5.49c-2.33,0-4.48.92-6.02,2.56-1.54,1.62-2.38,3.82-2.38,6.15,0,2.49.89,4.66,2.56,6.28,1.6,1.57,3.79,2.43,6.18,2.43,2.96,0,5.16-.97,7.2-3.14l.16-.16-1.91-1.62-.13.13c-1.52,1.54-3.19,2.25-5.23,2.25-3.06,0-5.31-1.94-5.76-4.92l-.03-.1h13.51l.03-.18c.03-.29.03-.55.03-.79,0-2.46-.76-4.68-2.15-6.28-1.49-1.73-3.59-2.62-6.05-2.62h-.01Z"/>
      <path class="cls-1" d="M108.33,22.58h2.96v-10.39c0-1.99-.63-3.69-1.78-4.89-1.2-1.23-2.9-1.88-4.97-1.88-5.13,0-8.37,1.75-8.51,1.83l-.1.05v15.26h2.96v-13.53l.05-.03c1.52-.68,2.96-.97,4.87-.97,1.41,0,2.56.45,3.35,1.26.76.81,1.18,2.02,1.18,3.48v9.81h0Z"/>
      <path class="cls-1" d="M148.9,20.33c-1.88,0-3.53-.24-5.92-1.47l-.05-.03v-9.71l.05-.03c.47-.24,2.22-1.05,4.92-1.05,3.93,0,5.91,2.07,5.91,6.15s-1.75,6.12-4.92,6.12h0v.02ZM140.08,27.66h2.96v-5.86l.13.05c2.15.84,3.59,1.1,5.78,1.1,4.89,0,7.93-3.35,7.93-8.77,0-2.7-.81-4.92-2.36-6.44-1.52-1.49-3.72-2.28-6.36-2.28-4.42,0-7.83,1.75-7.96,1.83l-.11.05-.03,20.31h.02Z"/>
      <path class="cls-1" d="M141.91,49.18c-1.57,0-2.8-.52-3.66-1.6-.84-1.05-1.28-2.62-1.28-4.53,0-5.1,3.25-6.15,5.94-6.15s4.45.81,4.92,1.05l.05.03v9.24l-.05.03c-2.22,1.31-4.11,1.94-5.92,1.94h0ZM142.67,34.26c-5.31,0-8.74,3.43-8.74,8.74,0,2.64.73,4.87,2.15,6.44,1.33,1.49,3.25,2.33,5.37,2.33s3.85-.42,6.2-1.54l.13-.05v1.26h2.96v-15.26l-.1-.05c-.13-.08-3.51-1.86-7.96-1.86h-.01Z"/>
      <polygon class="cls-1" points="159.53 22.58 162.48 22.58 162.48 .84 159.53 .84 159.53 22.58 159.53 22.58"/>
      <path class="cls-1" d="M165.81,26.82l.18.08c1.28.6,2.36.84,3.72.84,2.72,0,4.42-1.39,5.89-4.76l7.3-17.22h-3.17l-5.37,13.35-6.07-13.35h-3.27l7.88,16.54-.03.03c-.94,2.07-1.81,2.83-3.27,2.83-1.02,0-1.75-.16-2.59-.58l-.18-.1-1.02,2.36h0v-.02Z"/>
      <path class="cls-1" d="M53.68,48l.16.13c2.88,2.46,5.91,3.61,9.61,3.61,2.33,0,4.34-.6,5.81-1.75,1.52-1.18,2.3-2.83,2.3-4.76,0-3.43-2.3-5.39-7.69-6.52h0c-5.18-1.07-6.12-2.22-6.12-4.14,0-2.02,1.94-3.4,4.71-3.4,2.41,0,4.48.76,6.54,2.36l.16.13,1.78-2.25-.16-.13c-2.51-1.94-5-2.77-8.27-2.77-4.53,0-7.83,2.64-7.83,6.28,0,1.91.63,3.27,1.96,4.34,1.23.97,3.14,1.7,5.97,2.3,4.95,1,5.86,2.15,5.86,4.03,0,2.15-1.99,3.59-4.95,3.59s-5.26-.89-7.8-3.09l-.16-.13-1.88,2.17h0Z"/>
      <path class="cls-1" d="M102.89,49.2c-3.43,0-6.1-2.72-6.1-6.2,0-1.7.6-3.25,1.67-4.37,1.1-1.15,2.64-1.78,4.37-1.78,3.45,0,6.15,2.72,6.15,6.23,0,1.67-.6,3.22-1.7,4.34-1.15,1.13-2.7,1.78-4.4,1.78h.01ZM102.89,34.26c-5.13,0-9.13,3.87-9.13,8.79s3.98,8.74,9.08,8.74c2.51,0,4.84-.92,6.57-2.62,1.67-1.65,2.62-3.85,2.62-6.18-.05-4.89-4.03-8.74-9.13-8.74h0Z"/>
      <path class="cls-1" d="M127.59,51.43h2.96v-10.39c0-1.99-.63-3.69-1.78-4.89-1.2-1.23-2.91-1.88-4.97-1.88-5.13,0-8.38,1.75-8.51,1.83l-.1.05v15.28h2.96v-13.53l.05-.03c1.52-.68,2.96-.97,4.87-.97,1.41,0,2.56.45,3.35,1.26.76.81,1.18,2.02,1.18,3.48v9.79h-.01Z"/>
      <polygon class="cls-1" points="75.22 51.43 78.18 51.43 78.18 34.62 75.22 34.62 75.22 51.43 75.22 51.43"/>
      <path class="cls-1" d="M82.66,51.43h2.96v-13.71l.03-.03c.76-.52,1.86-.86,2.96-.86,1.81,0,2.88.6,3.93,1.18l.31.18,1.28-2.36-.18-.1c-1.62-.92-3.04-1.47-5.34-1.47-3.72,0-5.78,1.52-5.86,1.57l-.08.05v15.55h-.01Z"/>
      <path class="cls-1" d="M115.16.84v17.38c0,1.67.47,2.93,1.36,3.72s1.96.94,2.72.94c.94,0,1.81-.18,2.67-.58l-.89-2.33c-.39.18-.76.29-1.12.29-.79,0-1.78,0-1.78-2.36v-9.55h2.96v-2.57h-2.96V.83h-2.96,0Z"/>
      <polygon class="cls-1" points="75.17 32.56 78.34 32.56 78.34 29.68 75.17 29.68 75.17 32.56 75.17 32.56"/>
      <path class="cls-1" d="M11.68,0C28.09,0,39.66,10.42,39.58,25.36c-.03,3.3-.45,5.08-1.07,7.49-2.51-6.94-9.63-9.71-20.39-11.96h0C2.68,17.2.58,13.77.06,9.01V.03s11.67-.03,11.62-.03h0Z"/>
      <path class="cls-1" d="M32.17,41.09c0-5.55-2.98-8.24-16.78-11.23-8.35-1.81-11.93-3.3-15.39-6.1v23.56c4.66,2.85,11.31,4.58,14.79,4.58,11.73,0,17.38-5.13,17.38-10.81h0Z"/>
      <path class="cls-1" d="M123.67,20.33l.16.13c1.94,1.52,4.71,2.46,7.2,2.46,1.75,0,3.32-.47,4.45-1.33,1.2-.92,1.86-2.22,1.86-3.79v-.05c0-3.27-3.4-4.24-5.63-4.89l-.05-.03c-2.15-.63-4.19-1.23-4.19-2.59v-.05c0-1.28,1.28-2.17,3.09-2.17,1.57,0,3.32.55,4.95,1.54l.18.1,1.39-2.2-.18-.1c-1.83-1.15-4.16-1.83-6.26-1.83-3.56,0-6.02,2.02-6.02,4.89v.05c0,3.25,3.35,4.16,5.81,4.82,2.25.6,4.11,1.23,4.11,2.7v.05c0,1.44-1.33,2.38-3.32,2.38s-3.93-.71-5.81-2.04l-.16-.13-1.57,2.09h-.01Z"/>
    </g>
  </g>
</svg>