<?xml version="1.0" encoding="UTF-8"?>
<svg id="Layer_2" data-name="Layer 2" xmlns="http://www.w3.org/2000/svg" viewBox="0 0 132.89 87.86">
  <defs>
    <style>
      .cls-1 {
        fill: #fff;
      }
    </style>
  </defs>
  <g id="Layer_1-2" data-name="Layer 1">
    <g>
      <path class="cls-1" d="M4.2,72.53c-1.39,0-3.11.12-4.07.31v14.64h3.36v-4.87c.5.05.96.07,1.48.07,3.65,0,6-2.05,6-5.18,0-3.32-2.52-4.97-6.78-4.97M4.34,81c-.28,0-.56-.02-.85-.07v-6.73c.28-.05.52-.05.7-.05,2.45,0,3.41,1.32,3.41,3.39s-.96,3.46-3.27,3.46M24.94,77.14c0-2.92-2.07-4.61-6.75-4.61-.96,0-3.08.12-4.05.31v14.64h3.34v-5.67c.45.05.85.07,1.37.07h.05l3.27,5.6h3.67l-3.88-6.19c1.91-.8,2.99-2.35,2.99-4.14M18.21,80.18c-.24,0-.47-.02-.73-.07v-5.91c.28-.05.54-.05.85-.05,2.19,0,3.25,1.1,3.25,2.89,0,1.62-1.06,3.13-3.36,3.13M35.67,72.39c-4.4,0-7.62,3.2-7.62,7.91,0,5.01,2.96,7.55,7.39,7.55s7.62-3.2,7.62-7.91c0-5.01-2.96-7.55-7.39-7.55M35.5,86.03c-2.52,0-3.88-2.68-3.88-5.95s1.58-5.88,3.98-5.88c2.54,0,3.88,2.68,3.88,5.95s-1.58,5.88-3.98,5.88M50.95,72.53c-1.39,0-3.11.12-4.07.31v14.64h3.36v-4.87c.5.05.97.07,1.48.07,3.65,0,6-2.05,6-5.18,0-3.32-2.52-4.97-6.78-4.97M51.09,81c-.28,0-.56-.02-.85-.07v-6.73c.28-.05.52-.05.71-.05,2.45,0,3.41,1.32,3.41,3.39s-.96,3.46-3.27,3.46M64.23,85.61v-4.66h.4c1.39,0,2.85.02,4.28.09v-2.02c-1.44.07-2.89.1-4.28.1h-.4v-4.52h1.53c1.91,0,2.85.05,4.31.19v-2.02h-9.18v14.71h9.29v-2.09c-1.46.16-2.4.23-4.31.23h-1.65.01ZM84.66,77.14c0-2.92-2.07-4.61-6.75-4.61-.96,0-3.08.12-4.05.31v14.64h3.34v-5.67c.45.05.85.07,1.36.07h.05l3.27,5.6h3.67l-3.88-6.19c1.91-.8,2.99-2.35,2.99-4.14M77.93,80.18c-.23,0-.47-.02-.73-.07v-5.91c.28-.05.54-.05.85-.05,2.19,0,3.25,1.1,3.25,2.89,0,1.62-1.06,3.13-3.37,3.13M87.17,74.79c1.46-.16,2.4-.21,3.65-.21h.54v12.9h3.36v-12.9h.52c1.27,0,2.21.05,3.67.21v-2.02h-11.74v2.02h0ZM101.96,87.47h3.36v-14.71h-3.36v14.71ZM113.36,85.61v-4.66h.4c1.39,0,2.85.02,4.28.09v-2.02c-1.44.07-2.9.1-4.28.1h-.4v-4.52h1.53c1.91,0,2.85.05,4.31.19v-2.02h-9.18v14.71h9.29v-2.09c-1.46.16-2.4.23-4.31.23h-1.65.01ZM130.04,79.12l-2.21-1.13c-1.36-.71-2.02-1.15-2.02-2.14s.96-1.62,2.28-1.62,2.28.3,3.55,1.08l.89-1.72c-1.13-.78-2.61-1.2-4.45-1.2-2.94,0-5.51,1.51-5.51,4.24,0,2,.99,3.11,2.8,4.05l2.02,1.04c1.6.8,2.35,1.36,2.35,2.42,0,1.2-1.2,1.79-2.59,1.79-1.22,0-2.42-.4-3.72-1.44l-1.08,1.72c1.34,1.2,3.25,1.65,4.85,1.65,3.36,0,5.65-1.72,5.65-4.52,0-1.76-.8-3.15-2.82-4.21"/>
      <polygon class="cls-1" points="125.76 0 104.1 25.67 91.33 13.76 104.58 36.7 125.76 0"/>
      <path class="cls-1" d="M7.88,36.9c-3.19,0-4.95.12-7.88.5v23.69c3.19.42,5.2.5,7.93.5,11.82,0,16.06-6.38,16.06-12.65,0-7.3-4.82-12.04-16.1-12.04M8.35,58.75c-.8,0-1.59-.04-2.39-.15v-18.76c.84-.11,1.76-.19,2.35-.19,6.42,0,9.39,3.67,9.39,9.4,0,5.16-2.85,9.71-9.35,9.71M50.24,50.88c0,5.04-2.01,7.38-5.99,7.38-4.28,0-5.66-3.33-5.66-8.33v-12.65h-6v14.06c0,6.42,3.19,10.43,10.82,10.43s11.03-4.51,11.03-11.08v-13.41h-4.19v13.6h-.01ZM78.96,48.44c2.89-.95,4.4-3.06,4.4-5.35,0-4.62-4.74-6.19-11.28-6.19-2.47,0-5.16.15-7.21.5v23.69c3.27.38,5.7.5,8.18.5,7.13,0,11.78-2.52,11.78-7.22,0-2.87-2.01-5.12-5.87-5.92M70.79,39.61c.59-.08,1.17-.11,1.8-.11,3.23,0,5.07,1.45,5.07,3.78,0,2.79-1.93,4.17-5.2,4.17h-1.68v-7.83h.01ZM72.46,58.91c-.42,0-.96-.04-1.68-.11v-8.71h1.68c4.07,0,6.37,1.45,6.37,4.2,0,2.91-2.14,4.62-6.37,4.62M126.89,61.16h6v-23.88h-6v23.88ZM90.45,61.16h4.57l8.41-15.48,8.43,15.48h6.85l-14.13-24.46-14.12,24.46h-.01Z"/>
    </g>
  </g>
</svg>