<?xml version="1.0" encoding="UTF-8"?>
<svg id="Layer_2" data-name="Layer 2" xmlns="http://www.w3.org/2000/svg" viewBox="0 0 160.22 48.1">
  <defs>
    <style>
      .cls-1 {
        fill: #fff;
      }
    </style>
  </defs>
  <g id="Layer_1-2" data-name="Layer 1">
    <g>
      <path class="cls-1" d="M92.42,32.62c1.98.71,6.55-2.52,7.45-3.17l.14-.1.51-2.05-.84.34c-.78.31-1.82.49-2.03.25-.09-.1-.13-.51.37-1.43l8.15-14.2.26-.38c.24-.32.48-.65.26-1s-.68-.31-1.14-.24l-3.68.5-.12.18c-.06.1-6.56,10.47-10.5,13.54-1.38,1.07-1.92,1.26-2.1,1.3,0-.38.44-1.46,1.28-2.67l4.75-7.6.6-1c.19-.31,1.04-2.04,1.04-3.35,0-.48-.11-.9-.4-1.18-.86-.82-2.48.12-3.02.43l-4.82,2.87.06,2.08.58-.08s.7-.1.78-.11c-.01.32-.54,1.19-.75,1.53l-.25.42-.11.2c-2.92,5.07-6.24,11.36-6.24,13.77,0,.2.03.38.08.53.03.07.18.43.54.59,2.23.88,6.78-3.11,9.27-5.53-.48,1.27-.97,2.79-.97,3.93,0,.35.05.66.15.91.06.14.29.54.73.7"/>
      <path class="cls-1" d="M145.42,32.61c1.98.71,6.55-2.51,7.44-3.17l.13-.1.51-2.05-.84.34c-.78.31-1.81.48-2.03.25-.1-.1-.12-.51.37-1.42l8.15-14.21.27-.38c.23-.32.48-.65.26-1-.22-.34-.69-.3-1.14-.23l-3.68.5-.12.19c-.07.11-6.56,10.47-10.5,13.54-1.38,1.07-1.92,1.26-2.11,1.29,0-.38.45-1.46,1.28-2.67l4.75-7.6.6-.99c.19-.32,1.04-2.04,1.04-3.35,0-.48-.11-.9-.41-1.18-.85-.82-2.48.12-3.01.43l-4.82,2.87.05,2.08.59-.08s.7-.1.77-.11c0,.32-.54,1.2-.75,1.54l-.25.42-.12.21c-2.92,5.07-6.24,11.36-6.24,13.76,0,.2.03.38.08.53.03.08.18.43.55.59,2.23.89,6.78-3.1,9.27-5.53-.49,1.27-.97,2.79-.97,3.93,0,.34.05.66.15.9.06.15.29.55.72.7"/>
      <path class="cls-1" d="M130.44,10.43s7.46-3.92,3.86-7.07c-2.42-2.12-7.97,4.98-9.04,8.1-2.21,6.48-7.6,11.99-7.6,11.99,0,0,5.72,7.7,9.58,7.27,3.87-.42,4.8-4.41,4.8-4.41h3.86s-4.51,7.42-12.08,8.4c-5.03.65-10.72-6.4-10.72-6.4,0,0-3.66,2.61-5.72,3.49-1.46.61-3.48.77-4.73.21-.5-.22-.87-.6-.96-1.06-.07-.38-.07-.83.04-1.23,1.28-4.94,10.22-5.37,10.22-5.37,0,0,4.09-10.84,9.35-16.79,5.72-6.46,13.47-9.5,16.44-6.18s.72,7.23-1.83,9.07c-3.63,2.64-5.46,0-5.46,0"/>
      <path class="cls-1" d="M77.48,10.42s7.47-3.92,3.86-7.07c-2.42-2.12-7.98,4.98-9.04,8.09-2.21,6.48-7.6,11.99-7.6,11.99,0,0,5.72,7.7,9.59,7.27,3.87-.42,4.79-4.41,4.79-4.41h3.87s-4.51,7.42-12.08,8.4c-5.02.65-10.72-6.41-10.72-6.41,0,0-3.65,2.62-5.72,3.49-1.45.61-3.47.76-4.72.21-.5-.22-.88-.6-.96-1.05-.07-.38-.06-.83.04-1.23,1.27-4.94,10.22-5.38,10.22-5.38,0,0,4.09-10.85,9.35-16.79,5.72-6.46,13.48-9.49,16.44-6.18,2.96,3.32.71,7.23-1.83,9.07-3.63,2.64-5.46,0-5.46,0"/>
      <path class="cls-1" d="M.6,3.58s2.94-.17,7.89-1.84C14.81-.38,29.59-2.79,34.19,9.66c2.96,8.03-3.06,16.19-3.23,19.01-.2,3.25.21,4.73.21,4.73l-4.6,1.28s-1.08-3.19-.42-6.66c.86-4.52,5.01-10.59,4.58-14.7-.42-4.1-2-10.74-10.61-12.87-4.33-1.07-9.06,3.67-12.5,4.8-3.43,1.14-5.88,1.98-5.88,1.98L.6,3.56v.02Z"/>
      <path class="cls-1" d="M8.47,1.71C3.59,3.35.62,3.54.59,3.54h-.06l1.18,3.77,5.92-2c1.16-.38,2.48-1.17,3.86-2.01C14.19,1.67,17.25-.19,20.1.51c6.4,1.57,9.86,5.77,10.58,12.82.25,2.39-1.09,5.51-2.39,8.53-.9,2.11-1.84,4.29-2.2,6.16-.65,3.44.41,6.65.42,6.68v.04l4.7-1.29v-.04s-.52-1.86-.23-4.7c.1-1.1.63-2.4,1.33-4.06,1.58-3.74,3.98-9.39,1.9-15C28.91-4.7,10.54,1,8.46,1.71M8.5,1.79c2.07-.7,20.37-6.38,25.64,7.89.57,1.55.8,3.1.8,4.61,0,3.94-1.57,7.64-2.7,10.32-.7,1.67-1.28,3.39-1.47,4.42-.26,1.45.34,4.14.35,4.34-.07.02-4.43,1.23-4.52,1.26-.07-.21-.62-1.99-.62-4.27,0-.74.06-1.53.21-2.32.35-1.86,1.29-4.04,2.19-6.14,1.2-2.78,2.42-5.64,2.42-7.97,0-.21,0-.41-.03-.6-.73-7.1-4.21-11.32-10.65-12.91-2.89-.71-5.96,1.15-8.68,2.8-1.38.84-2.68,1.63-3.83,2.01,0,0-5.37,1.81-5.84,1.97-.03-.09-1.08-3.47-1.12-3.57.3-.02,3.19-.27,7.85-1.83"/>
      <path class="cls-1" d="M2.32,9.09s6.59-2.97,11.62-5.79C19.74.04,36.03-3.63,40.62,8.82c2.97,8.02-1.35,15.58-2.14,18.8-.67,2.75.07,4.06.07,4.06l-4.6,1.28s-.72-1.31-.06-4.78c.86-4.52,3.72-7.63,3.72-14.99,0-4.12-3.06-11.2-11.76-12.86-5.17-.99-9.3,2.63-12.06,4.94-3.87,3.26-10.76,7.21-10.76,7.21l-.71-3.4h0Z"/>
      <path class="cls-1" d="M24.97.15c-1.65-.16-3.19.17-4.61.72-2.63.63-4.92,1.52-6.44,2.38-4.96,2.79-11.55,5.76-11.61,5.79l-.04.02.74,3.49.06-.03c.07-.04,6.93-4,10.76-7.22l.22-.18c1.64-1.38,3.8-3.16,6.35-4.16,1.45-.35,2.99-.61,4.57-.72.29.03.59.07.88.13,8.61,1.65,11.72,8.57,11.72,12.82,0,4.69-1.19,7.7-2.23,10.37-.6,1.53-1.18,2.98-1.49,4.61-.21,1.09-.28,1.96-.28,2.66,0,1.49.33,2.11.35,2.15l.02.03,4.69-1.3-.03-.05s-.72-1.34-.06-4.04c.16-.65.47-1.51.84-2.49,1.46-3.96,3.67-9.94,1.3-16.33-1.4-3.78-3.97-6.37-7.65-7.7C30.48.18,27.68-.04,24.97.15M24.33.22c-1.13.11-2.25.27-3.31.5,1.04-.34,2.14-.53,3.31-.5M13.97,3.33c1.38-.78,3.42-1.6,5.76-2.21-2.3,1.03-4.24,2.66-5.74,3.93l-.22.18c-3.68,3.09-10.15,6.86-10.69,7.17-.03-.12-.68-3.23-.7-3.3.36-.16,6.74-3.05,11.59-5.78M32.99,1.19c3.65,1.32,6.21,3.89,7.59,7.64.75,2.02,1.04,3.99,1.04,5.88,0,4.06-1.34,7.7-2.33,10.39-.37.99-.68,1.84-.84,2.51-.21.87-.29,1.59-.29,2.18,0,1.14.27,1.73.34,1.87-.1.03-4.44,1.23-4.51,1.25-.07-.14-.32-.79-.32-2.1,0-.69.08-1.55.27-2.62.31-1.63.88-3.07,1.48-4.6,1.06-2.67,2.25-5.69,2.25-10.4,0-4.28-3.14-11.25-11.8-12.91-.13-.02-.26-.03-.4-.05,2.54-.13,5.14.1,7.53.96"/>
      <path class="cls-1" d="M15.98,19.38h-7.6c.02.21.05.43.08.64h8.08c-.21-.19-.4-.4-.56-.64"/>
      <path class="cls-1" d="M21.39,20.02h5.92c.03-.21.06-.42.08-.64h-5.44c-.16.24-.35.45-.56.64"/>
      <path class="cls-1" d="M9.83,23.67h16.1c.14-.21.27-.42.39-.65H9.45c.12.23.25.44.38.65"/>
      <path class="cls-1" d="M10.77,24.88h14.23c.18-.2.36-.42.53-.64h-15.3c.17.22.35.44.54.64"/>
      <path class="cls-1" d="M18.96,20.96c-.56,0-1.09-.14-1.57-.37h-8.85c.05.22.11.43.17.64h18.33c.06-.21.12-.42.17-.64h-6.68c-.47.23-1,.37-1.57.37"/>
      <path class="cls-1" d="M9.16,22.45h17.43c.1-.21.18-.42.26-.64H8.91c.08.22.16.43.25.64"/>
      <path class="cls-1" d="M12.09,26.1h11.57c.27-.2.52-.42.76-.64h-13.11c.24.23.5.44.77.64"/>
      <path class="cls-1" d="M17.88,28.03c.56,0,1.11-.05,1.64-.14h-3.27c.53.09,1.07.14,1.63.14"/>
      <path class="cls-1" d="M14.21,27.32h7.33c.44-.18.86-.4,1.26-.64h-9.86c.41.24.83.46,1.27.64"/>
      <path class="cls-1" d="M11.66,11.51h12.43c-.27-.23-.55-.44-.85-.64h-10.75c-.29.2-.57.41-.84.64"/>
      <path class="cls-1" d="M10.46,12.72h14.84c-.18-.22-.38-.44-.58-.64h-13.68c-.21.21-.4.42-.58.64"/>
      <path class="cls-1" d="M22.26,18.8h5.15v-.17c0-.16-.01-.32-.03-.48h-4.93c-.05.22-.12.44-.2.64"/>
      <path class="cls-1" d="M15.46,18.16h-7.1c0,.16-.03.31-.03.48v.17h7.32c-.09-.2-.16-.42-.21-.64"/>
      <path class="cls-1" d="M9.77,13.94h8.87c.1,0,.21-.03.31-.03s.21.02.32.03h6.86c-.13-.22-.26-.43-.4-.64h-15.54c-.06.17-.37.53-.43.64"/>
      <path class="cls-1" d="M13.48,10.29h8.78c-.5-.26-1.02-.48-1.58-.64h-5.63c-.55.17-1.07.38-1.58.64"/>
      <path class="cls-1" d="M15.38,17.44c0-.17.03-.33.05-.49h-6.94c-.04.21-.07.43-.1.64h7s-.02-.1-.02-.15"/>
      <path class="cls-1" d="M22.55,17.44s-.02.1-.02.15h4.83c-.03-.22-.06-.43-.1-.64h-4.76c.02.16.05.32.05.49"/>
      <path class="cls-1" d="M15.85,15.73h-7.04c-.08.21-.13.42-.18.64h6.94c.07-.23.16-.43.28-.64"/>
      <path class="cls-1" d="M22.36,16.37h4.77c-.05-.22-.11-.43-.18-.64h-4.87c.11.21.21.42.28.64"/>
      <path class="cls-1" d="M21.67,15.16h5.07c-.09-.22-.19-.43-.3-.64h-5.48c.27.17.5.4.71.64"/>
      <path class="cls-1" d="M16.96,14.52h-7.43c-.11.21-.26.42-.34.64h7.06c.21-.24.44-.47.71-.64"/>
      <path class="cls-1" d="M18.25,11.93s4.69-2.51,2.43-4.53c-1.53-1.36-5.02,3.19-5.69,5.19-1.4,4.15-4.78,7.67-4.78,7.67,0,0,3.6,4.94,6.03,4.67,2.43-.28,3.02-2.83,3.02-2.83h2.43s-2.83,4.75-7.6,5.38c-3.16.41-6.74-4.1-6.74-4.1,0,0-2.31,1.56-3.6,2.12-1.3.56-3.46.51-3.58-.43-.43-3.67,6.45-4.23,6.45-4.23,0,0,2.57-6.95,5.88-10.76,3.59-4.14,8.47-6.08,10.33-3.96,1.86,2.12.44,4.63-1.15,5.81-2.29,1.69-3.44,0-3.44,0"/>
      <path class="cls-1" d="M20.66,5.1c-2.41,0-5.74,1.97-8.27,4.88-3.09,3.55-5.56,9.89-5.88,10.71-.65.06-4.36.5-5.87,2.33-.43.51-.64,1.09-.64,1.71,0,.12,0,.23.02.35.03.26.2.48.47.65.73.41,2.25.37,3.32-.09,1.15-.5,3.03-1.74,3.51-2.06.57.69,3.81,4.44,6.79,4.05,4.79-.63,7.69-5.4,7.71-5.45l.13-.23h-2.82l-.02.12s-.6,2.45-2.89,2.71c-2.13.24-5.3-3.84-5.81-4.5.52-.57,3.46-3.86,4.72-7.64.51-1.52,2.9-4.85,4.57-5.29.36-.1.65-.04.88.17.43.38.61.79.56,1.25-.19,1.53-2.93,3.02-2.96,3.03l-.15.08.09.14s.45.65,1.3.79c.73.12,1.51-.14,2.35-.75.9-.67,1.92-1.9,2.07-3.34.11-.98-.2-1.89-.9-2.69-.54-.61-1.33-.93-2.3-.92M.62,25.48c-.19-.12-.29-.25-.33-.42-.16-.62.13-1.31.58-1.86,1.54-1.86,5.72-2.22,5.76-2.22h.09l.03-.1c.03-.07,2.6-6.97,5.85-10.71,2.49-2.85,5.71-4.77,8.04-4.77.89,0,1.59.27,2.07.81.65.73.93,1.56.83,2.46-.14,1.35-1.11,2.5-1.96,3.13-.76.57-1.46.81-2.11.7-.51-.08-.84-.37-1-.53.62-.36,2.78-1.7,2.95-3.17v-.19c0-.48-.22-.93-.66-1.32-.31-.28-.71-.35-1.16-.23-1.83.47-4.26,3.94-4.78,5.49-1.37,4.06-4.71,7.59-4.75,7.62l-.09.09.07.11c.15.2,3.68,5,6.18,4.72,2.2-.25,2.95-2.31,3.11-2.82h2.04c-.63.95-3.3,4.55-7.34,5.08-3.04.4-6.57-4-6.6-4.04l-.09-.11-.12.08s-2.3,1.56-3.57,2.11c-.98.42-2.34.57-3.07.12"/>
      <path class="cls-1" d="M16.41,16.74c.3-1.21,1.41-2.11,2.73-2.11.47,0,.91.11,1.31.32.22.11.05.45-.17.32-.34-.17-.72-.27-1.13-.27-1.14,0-2.1.78-2.36,1.83-.06.23-.43.15-.37-.09M16.33,17.67c0-.13,0-.26.03-.39.04-.25.41-.19.37.05-.02.11-.02.23-.02.34,0,.25-.38.25-.38,0"/>
      <path class="cls-1" d="M21.69,18.28c-.4,1.05-1.44,1.8-2.64,1.8-.26,0-.51-.03-.75-.1s-.14-.42.1-.36c.2.06.42.08.65.08,1.04,0,1.94-.65,2.29-1.56.09-.23.45-.1.36.13M21.86,17.31c0,.18-.02.36-.06.53-.05.24-.42.17-.37-.07.02-.15.04-.3.04-.46,0-.25.38-.25.38,0"/>
      <polygon class="cls-1" points=".58 43.55 .58 45.3 2.71 45.3 2.71 43.55 3.26 43.55 3.26 47.92 2.71 47.92 2.71 45.77 .58 45.77 .58 47.92 .03 47.92 .03 43.55 .58 43.55"/>
      <polygon class="cls-1" points="3.96 43.55 4.7 43.55 5.71 45.4 6.72 43.55 7.42 43.55 5.99 45.94 5.99 47.92 5.38 47.92 5.38 45.94 3.96 43.55"/>
      <path class="cls-1" d="M8.89,43.55c.08,0,.2.01.34.02.14,0,.29.03.45.07.23.06.44.19.63.36.19.18.29.46.29.84,0,.43-.12.74-.37.91-.25.18-.51.28-.8.32-.07,0-.14,0-.21.02h-.5v1.83h-.55v-4.37h.74-.02ZM8.71,45.63h.23c.36,0,.64-.06.83-.19.19-.13.28-.35.28-.66,0-.29-.11-.48-.33-.57s-.46-.14-.73-.15h-.28v1.57h0Z"/>
      <polygon class="cls-1" points="13.7 43.55 13.7 44.06 11.91 44.06 11.91 45.22 13.66 45.22 13.66 45.72 11.91 45.72 11.91 47.37 13.7 47.37 13.7 47.92 11.31 47.92 11.31 43.55 13.7 43.55"/>
      <path class="cls-1" d="M16.02,43.55c.31.02.57.13.76.31s.32.38.38.59c.02.05.03.11.03.15,0,.05.01.1.01.15,0,.39-.11.69-.33.91-.22.21-.48.34-.78.39l1.43,1.87h-.7l-1.3-1.83h-.23v1.83h-.55v-4.37h1.28ZM15.32,45.67c.42,0,.75-.05.99-.15s.35-.31.35-.6v-.08c0-.19-.08-.37-.25-.53-.17-.16-.48-.24-.94-.24h-.15v1.61h0Z"/>
      <polygon class="cls-1" points="21.8 43.36 22.73 47.93 22.12 47.93 21.62 45.03 20.28 47.98 18.94 45.07 18.43 47.93 17.89 47.93 18.76 43.36 20.28 46.87 21.8 43.36"/>
      <path class="cls-1" d="M27.34,47.92h-.6l-.51-1.09h-1.99l-.51,1.09h-.6l2.07-4.6,2.12,4.6h.02ZM24.44,46.31h1.57l-.78-1.75-.79,1.75Z"/>
      <path class="cls-1" d="M29.28,43.55c.31.02.57.13.76.31.2.18.32.38.39.59.02.05.03.11.03.15,0,.05.01.1.01.15,0,.39-.11.69-.33.91-.22.21-.48.34-.78.39l1.43,1.87h-.7l-1.3-1.83h-.23v1.83h-.55v-4.37h1.27ZM28.58,45.67c.42,0,.75-.05.99-.15s.35-.31.35-.6v-.08c0-.19-.08-.37-.25-.53-.17-.16-.48-.24-.95-.24h-.15v1.61h0Z"/>
      <polygon class="cls-1" points="32.02 43.55 32.02 45.49 33.91 43.55 34.61 43.55 32.68 45.53 34.7 47.92 33.91 47.92 32.26 45.9 32.02 46.13 32.02 47.92 31.48 47.92 31.48 43.55 32.02 43.55"/>
      <polygon class="cls-1" points="37.77 43.55 37.77 44.06 35.97 44.06 35.97 45.22 37.72 45.22 37.72 45.72 35.97 45.72 35.97 47.37 37.77 47.37 37.77 47.92 35.38 47.92 35.38 43.55 37.77 43.55"/>
      <polygon class="cls-1" points="38.4 44.06 38.4 43.55 41.07 43.55 41.07 44.06 40.06 44.06 40.06 47.92 39.45 47.92 39.45 44.06 38.4 44.06"/>
      <path class="cls-1" d="M43.72,44.18s-.08-.08-.12-.11c-.08-.06-.16-.1-.24-.11-.08-.02-.15-.03-.21-.03-.23,0-.41.06-.55.19-.14.13-.21.27-.21.43v.08c.02.08.06.17.13.25.07.08.17.15.29.2.07.04.17.08.31.14s.28.12.43.2c.17.09.33.19.48.3s.25.23.3.37c0,.03.02.07.03.11,0,.04.02.07.02.11.01.05.02.1.02.15v.14c0,.38-.13.71-.39,1s-.58.43-.96.43h-.06c-.34,0-.65-.12-.93-.37-.27-.25-.41-.54-.41-.85l.51-.15c.05.29.15.51.31.65.16.14.34.22.52.22h.11c.17-.02.32-.08.47-.21s.25-.29.29-.51v-.17c0-.21-.08-.38-.22-.51-.15-.13-.32-.24-.5-.32-.02,0-.05-.02-.08-.03s-.05-.02-.08-.03c-.02,0-.03-.01-.05-.02-.02,0-.03-.02-.05-.02-.26-.11-.51-.24-.73-.4s-.33-.41-.33-.76c0-.06.01-.14.03-.21.02-.08.05-.16.09-.24.09-.16.22-.31.4-.45s.41-.21.68-.21c.23,0,.42.03.57.08.15.05.29.15.43.29.04.04.08.08.12.13s.08.1.12.16l-.46.26c-.04-.06-.08-.11-.12-.15"/>
      <path class="cls-1" d="M50.71,44.18s-.08-.08-.12-.11c-.08-.06-.16-.1-.24-.11-.08-.02-.15-.03-.21-.03-.23,0-.41.06-.55.19-.14.13-.21.27-.21.43v.08c.02.08.06.17.13.25.07.08.17.15.29.2.07.04.17.08.31.14.14.06.28.12.43.2.17.09.33.19.48.3s.25.23.3.37c0,.03.02.07.03.11,0,.04.02.07.02.11.01.05.02.1.02.15v.14c0,.38-.13.71-.39,1s-.58.43-.96.43h-.06c-.34,0-.65-.12-.93-.37-.27-.25-.41-.54-.41-.85l.51-.15c.05.29.15.51.31.65.16.14.34.22.52.22h.11c.17-.02.32-.08.47-.21s.25-.29.29-.51v-.17c0-.21-.08-.38-.23-.51-.15-.13-.31-.24-.5-.32-.02,0-.05-.02-.08-.03s-.05-.02-.08-.03c-.02,0-.03-.01-.05-.02-.02,0-.03-.02-.05-.02-.26-.11-.51-.24-.73-.4s-.33-.41-.33-.76c0-.06.01-.14.03-.21.02-.08.05-.16.09-.24.09-.16.22-.31.4-.45s.41-.21.68-.21c.23,0,.42.03.57.08s.29.15.43.29c.04.04.08.08.12.13s.08.1.12.16l-.46.26c-.04-.06-.08-.11-.12-.15"/>
      <path class="cls-1" d="M55.48,43.55v2.76c0,.5-.15.9-.46,1.22-.3.32-.69.48-1.17.48h-.08c-.44-.03-.76-.16-.99-.37-.22-.21-.38-.44-.46-.69-.03-.09-.06-.19-.08-.28s-.03-.18-.04-.26v-2.86h.55v2.82c.03.28.12.53.28.77.16.23.42.36.78.38.32,0,.58-.11.79-.33s.31-.54.31-.96v-2.68h.57Z"/>
      <path class="cls-1" d="M57.2,43.55c.08,0,.2.01.34.02.14,0,.29.03.45.07.23.06.44.19.63.36.19.18.29.46.29.84,0,.43-.12.74-.37.91-.25.18-.51.28-.8.32-.07,0-.14,0-.21.02h-.5v1.83h-.55v-4.37h.74-.02ZM57.02,45.63h.23c.36,0,.64-.06.83-.19.19-.13.28-.35.28-.66,0-.29-.11-.48-.33-.57s-.46-.14-.73-.15h-.28v1.57h0Z"/>
      <polygon class="cls-1" points="62.02 43.55 62.02 44.06 60.22 44.06 60.22 45.22 61.97 45.22 61.97 45.72 60.22 45.72 60.22 47.37 62.02 47.37 62.02 47.92 59.63 47.92 59.63 43.55 62.02 43.55"/>
      <path class="cls-1" d="M64.33,43.55c.31.02.57.13.76.31.2.18.32.38.39.59.02.05.03.11.03.15,0,.05.01.1.01.15,0,.39-.11.69-.33.91-.22.21-.48.34-.78.39l1.43,1.87h-.7l-1.3-1.83h-.23v1.83h-.55v-4.37h1.27ZM63.63,45.67c.42,0,.75-.05.99-.15s.35-.31.35-.6v-.08c0-.19-.08-.37-.25-.53-.17-.16-.48-.24-.95-.24h-.15v1.61h0Z"/>
      <polygon class="cls-1" points="70.12 43.36 71.04 47.93 70.43 47.93 69.93 45.03 68.59 47.98 67.25 45.07 66.75 47.93 66.2 47.93 67.07 43.36 68.59 46.87 70.12 43.36"/>
      <path class="cls-1" d="M75.66,47.92h-.6l-.51-1.09h-1.99l-.51,1.09h-.6l2.08-4.6,2.12,4.6h.01ZM72.75,46.31h1.57l-.78-1.75-.79,1.75Z"/>
      <path class="cls-1" d="M77.59,43.55c.31.02.57.13.76.31s.32.38.38.59c.02.05.03.11.03.15,0,.05.01.1.01.15,0,.39-.11.69-.33.91-.22.21-.48.34-.78.39l1.43,1.87h-.7l-1.29-1.83h-.23v1.83h-.55v-4.37h1.27ZM76.89,45.67c.42,0,.75-.05.99-.15s.35-.31.35-.6v-.08c0-.19-.08-.37-.25-.53-.17-.16-.48-.24-.94-.24h-.15v1.61h0Z"/>
      <polygon class="cls-1" points="80.34 43.55 80.34 45.49 82.23 43.55 82.93 43.55 80.99 45.53 83.01 47.92 82.23 47.92 80.57 45.9 80.34 46.13 80.34 47.92 79.79 47.92 79.79 43.55 80.34 43.55"/>
      <polygon class="cls-1" points="86.08 43.55 86.08 44.06 84.29 44.06 84.29 45.22 86.04 45.22 86.04 45.72 84.29 45.72 84.29 47.37 86.08 47.37 86.08 47.92 83.69 47.92 83.69 43.55 86.08 43.55"/>
      <polygon class="cls-1" points="86.72 44.06 86.72 43.55 89.39 43.55 89.39 44.06 88.38 44.06 88.38 47.92 87.77 47.92 87.77 44.06 86.72 44.06"/>
      <path class="cls-1" d="M92.03,44.18s-.08-.08-.12-.11c-.08-.06-.16-.1-.24-.11-.08-.02-.14-.03-.21-.03-.23,0-.41.06-.55.19-.14.13-.21.27-.21.43v.08c.02.08.06.17.13.25.07.08.17.15.29.2.07.04.17.08.31.14s.28.12.43.2c.17.09.33.19.48.3s.25.23.3.37c0,.03.02.07.03.11,0,.04.02.07.03.11,0,.05.02.1.02.15v.14c0,.38-.13.71-.39,1s-.58.43-.96.43h-.06c-.34,0-.65-.12-.93-.37-.27-.25-.41-.54-.41-.85l.51-.15c.05.29.15.51.31.65.16.14.34.22.52.22h.11c.17-.02.32-.08.47-.21s.25-.29.29-.51v-.17c0-.21-.07-.38-.22-.51-.15-.13-.32-.24-.5-.32-.02,0-.05-.02-.08-.03s-.05-.02-.08-.03c-.02,0-.03-.01-.05-.02-.02,0-.03-.02-.05-.02-.26-.11-.51-.24-.73-.4s-.33-.41-.33-.76c0-.06.01-.14.03-.21.02-.08.05-.16.09-.24.09-.16.22-.31.4-.45s.41-.21.69-.21c.23,0,.42.03.57.08.15.05.29.15.43.29.04.04.08.08.12.13s.08.1.12.16l-.46.26c-.04-.06-.08-.11-.12-.15"/>
      <path class="cls-1" d="M97.94,43.55c.8,0,1.44.16,1.9.46.46.3.7.86.72,1.67v.15c0,.05,0,.1-.01.15-.05.49-.25.94-.61,1.34-.35.41-.93.62-1.73.62h-1.1v-4.38h.83ZM97.71,47.42h.61c.42,0,.75-.1.99-.31s.41-.44.51-.68c.05-.13.09-.26.12-.39.02-.12.04-.23.04-.33v-.14c0-.05,0-.09-.02-.14-.05-.35-.21-.68-.49-.97-.27-.29-.71-.44-1.29-.44h-.46v3.4h-.01Z"/>
      <polygon class="cls-1" points="103.72 43.55 103.72 44.06 101.93 44.06 101.93 45.22 103.68 45.22 103.68 45.72 101.93 45.72 101.93 47.37 103.72 47.37 103.72 47.92 101.33 47.92 101.33 43.55 103.72 43.55"/>
      <path class="cls-1" d="M105.53,43.55c.08,0,.2.01.34.02.14,0,.29.03.45.07.23.06.44.19.63.36.19.18.29.46.29.84,0,.43-.12.74-.37.91-.25.18-.51.28-.8.32-.07,0-.14,0-.21.02h-.5v1.83h-.55v-4.37h.74-.02ZM105.34,45.63h.23c.36,0,.64-.06.83-.19.19-.13.28-.35.28-.66,0-.29-.11-.48-.33-.57s-.46-.14-.73-.15h-.28v1.57h0Z"/>
      <path class="cls-1" d="M111.73,47.92h-.6l-.51-1.09h-1.99l-.51,1.09h-.6l2.07-4.6,2.12,4.6h.02ZM108.82,46.31h1.57l-.78-1.75-.79,1.75Z"/>
      <path class="cls-1" d="M113.66,43.55c.31.02.57.13.76.31s.32.38.38.59c.02.05.03.11.03.15,0,.05.01.1.01.15,0,.39-.11.69-.33.91-.22.21-.48.34-.78.39l1.43,1.87h-.7l-1.29-1.83h-.23v1.83h-.55v-4.37h1.27ZM112.96,45.67c.42,0,.75-.05.99-.15s.35-.31.35-.6v-.08c0-.19-.08-.37-.25-.53-.17-.16-.48-.24-.94-.24h-.15v1.61h0Z"/>
      <polygon class="cls-1" points="115.44 44.06 115.44 43.55 118.11 43.55 118.11 44.06 117.1 44.06 117.1 47.92 116.49 47.92 116.49 44.06 115.44 44.06"/>
      <polygon class="cls-1" points="122.47 43.36 123.4 47.93 122.79 47.93 122.29 45.03 120.95 47.98 119.61 45.07 119.1 47.93 118.56 47.93 119.42 43.36 120.95 46.87 122.47 43.36"/>
      <polygon class="cls-1" points="126.62 43.55 126.62 44.06 124.82 44.06 124.82 45.22 126.57 45.22 126.57 45.72 124.82 45.72 124.82 47.37 126.62 47.37 126.62 47.92 124.23 47.92 124.23 43.55 126.62 43.55"/>
      <polygon class="cls-1" points="131 46.78 131 43.55 131.54 43.55 131.54 48.1 128.22 44.74 128.22 47.92 127.64 47.92 127.64 43.32 131 46.78"/>
      <polygon class="cls-1" points="132.15 44.06 132.15 43.55 134.82 43.55 134.82 44.06 133.81 44.06 133.81 47.92 133.2 47.92 133.2 44.06 132.15 44.06"/>
      <path class="cls-1" d="M140.97,44.18s-.08-.08-.12-.11c-.08-.06-.16-.1-.24-.11-.08-.02-.14-.03-.21-.03-.23,0-.41.06-.55.19-.14.13-.21.27-.21.43v.08c.02.08.06.17.13.25.07.08.17.15.29.2.07.04.17.08.31.14s.28.12.43.2c.17.09.33.19.49.3.15.11.25.23.3.37,0,.03.02.07.03.11,0,.04.02.07.03.11,0,.05.02.1.02.15v.14c0,.38-.13.71-.39,1s-.58.43-.96.43h-.06c-.34,0-.65-.12-.93-.37s-.41-.54-.41-.85l.51-.15c.04.29.15.51.31.65.16.14.34.22.52.22h.11c.17-.02.32-.08.47-.21s.24-.29.29-.51v-.17c0-.21-.08-.38-.22-.51-.15-.13-.32-.24-.5-.32-.02,0-.05-.02-.08-.03s-.05-.02-.08-.03c-.02,0-.03-.01-.05-.02-.02,0-.03-.02-.05-.02-.26-.11-.51-.24-.73-.4s-.33-.41-.33-.76c0-.06.01-.14.03-.21.02-.08.05-.16.09-.24.09-.16.22-.31.4-.45s.4-.21.69-.21c.23,0,.42.03.57.08.15.05.29.15.43.29.04.04.08.08.12.13s.08.1.12.16l-.46.26c-.04-.06-.08-.11-.12-.15"/>
      <polygon class="cls-1" points="142.14 44.06 142.14 43.55 144.81 43.55 144.81 44.06 143.8 44.06 143.8 47.92 143.19 47.92 143.19 44.06 142.14 44.06"/>
      <path class="cls-1" d="M145.36,45.67c.07-.71.33-1.26.78-1.64s.99-.57,1.61-.57c.55,0,1.02.17,1.4.52s.64.73.78,1.15c.03.09.05.19.07.28s.02.18.02.27c0,.69-.22,1.25-.65,1.69-.43.43-1.02.65-1.76.65h-.08c-.57,0-1.03-.16-1.37-.49-.34-.33-.58-.69-.71-1.09-.04-.11-.07-.23-.08-.34-.02-.11-.03-.22-.03-.33v-.1h.02ZM149.05,44.61c-.23-.25-.48-.42-.75-.52-.1-.04-.19-.06-.29-.08-.09-.02-.18-.03-.27-.04h-.08c-.48,0-.89.17-1.23.52s-.52.74-.54,1.19v.1c0,.44.15.84.45,1.19.3.35.75.54,1.35.55h.08c.44,0,.78-.12,1.04-.35.25-.23.43-.49.53-.77.04-.1.07-.2.08-.31.02-.1.03-.2.03-.28v-.11c-.04-.48-.17-.85-.39-1.1"/>
      <path class="cls-1" d="M152.02,43.55c.31.02.57.13.76.31.2.18.32.38.39.59.02.05.03.11.03.15,0,.05.01.1.01.15,0,.39-.11.69-.33.91-.22.21-.48.34-.78.39l1.43,1.87h-.7l-1.3-1.83h-.23v1.83h-.55v-4.37h1.27ZM151.32,45.67c.42,0,.75-.05.99-.15.23-.11.35-.31.35-.6v-.08c0-.19-.08-.37-.25-.53-.17-.16-.48-.24-.95-.24h-.15v1.61h0Z"/>
      <polygon class="cls-1" points="156.61 43.55 156.61 44.06 154.82 44.06 154.82 45.22 156.57 45.22 156.57 45.72 154.82 45.72 154.82 47.37 156.61 47.37 156.61 47.92 154.22 47.92 154.22 43.55 156.61 43.55"/>
      <path class="cls-1" d="M159.54,44.18s-.08-.08-.12-.11c-.08-.06-.16-.1-.24-.11-.08-.02-.14-.03-.21-.03-.23,0-.41.06-.55.19-.14.13-.21.27-.21.43v.08c.02.08.06.17.13.25.07.08.17.15.29.2.07.04.17.08.31.14.14.06.28.12.43.2.17.09.33.19.48.3s.25.23.3.37c0,.03.02.07.03.11,0,.04.02.07.02.11.01.05.02.1.02.15v.14c0,.38-.13.71-.39,1s-.58.43-.96.43h-.06c-.34,0-.65-.12-.93-.37-.27-.25-.41-.54-.41-.85l.51-.15c.05.29.15.51.31.65.16.14.34.22.52.22h.11c.17-.02.32-.08.47-.21s.25-.29.29-.51v-.17c0-.21-.07-.38-.22-.51-.15-.13-.32-.24-.5-.32-.02,0-.05-.02-.08-.03s-.05-.02-.08-.03c-.02,0-.03-.01-.05-.02-.02,0-.03-.02-.05-.02-.26-.11-.51-.24-.73-.4s-.33-.41-.33-.76c0-.06.01-.14.03-.21.02-.08.05-.16.09-.24.09-.16.22-.31.4-.45s.41-.21.69-.21c.23,0,.42.03.57.08s.29.15.43.29c.04.04.08.08.12.13s.08.1.12.16l-.46.26c-.04-.06-.08-.11-.12-.15"/>
      <path class="cls-1" d="M46.73,46.65c-.57,0-1.04-.46-1.04-1.03s.46-1.04,1.04-1.04,1.04.46,1.04,1.04-.47,1.03-1.04,1.03"/>
      <path class="cls-1" d="M94.85,46.65c-.57,0-1.04-.46-1.04-1.03s.47-1.04,1.04-1.04,1.04.46,1.04,1.04-.47,1.03-1.04,1.03"/>
    </g>
  </g>
</svg>