<?xml version="1.0" encoding="UTF-8"?>
<svg id="Layer_1" xmlns="http://www.w3.org/2000/svg" version="1.1" viewBox="0 0 44.2 56.4">
  <!-- Generator: Adobe Illustrator 29.6.1, SVG Export Plug-In . SVG Version: 2.1.1 Build 9)  -->
  <defs>
    <style>
      .st0 {
        fill: #e40421;
      }
    </style>
  </defs>
  <path class="st0" d="M22.1,0l-3.5,6h0c0,0-18.6,32.3-18.6,32.3h44.2L22.1,0ZM36.8,30.9l-15.8,2.8,13.1-6.1,2.8,3.3ZM22.1,4.2l11,19.1-13-15.5,2-3.5ZM19.4,10.1l10.1,12-11.5-8.1,1.4-4ZM3.6,36.3l10.9-18.9-6.9,18.9H3.6ZM14.2,34.9l-4.1.7,5.3-14.7-1.2,13.9ZM17.9,16.6l14,9.8-15.4,7.2,1.5-17ZM38.6,32.7l2,3.5h-21.9l19.9-3.5Z"/>
  <g>
    <path class="st0" d="M10.8,53.8h-5l-.8,2.4h-2.6l4.5-12.5h2.9l4.5,12.5h-2.6l-.8-2.4ZM10.1,51.8l-1.8-5.2-1.8,5.2h3.6Z"/>
    <path class="st0" d="M27.3,56.2l-1.4-1.3c-1.2,1-2.6,1.6-4.2,1.6s-1.7-.2-2.4-.5c-.7-.3-1.2-.8-1.6-1.3-.4-.6-.6-1.2-.6-2s.2-1.6.7-2.2,1.1-1.2,2.1-1.6c-.3-.4-.6-.8-.7-1.1-.1-.4-.2-.8-.2-1.2s.1-1.1.4-1.5c.3-.5.7-.8,1.3-1.1s1.2-.4,1.9-.4,1.4.1,1.9.4.9.7,1.2,1.1c.3.5.4,1,.3,1.6h-2.4c0-.4,0-.7-.3-.9-.2-.2-.5-.3-.8-.3s-.6,0-.8.3c-.2.2-.3.4-.3.8s0,.6.3.9c.2.3.5.7.9,1.1l3.1,3.1s0,0,0,0c0,0,0,0,0,0l1-1.7h2.6l-1.3,2.2c-.2.5-.5.9-.8,1.3l3,3h-3.1ZM24.4,53.3l-3.1-3c-1.2.5-1.7,1.2-1.7,2.2s.2,1,.6,1.3c.4.4.9.5,1.6.5,1,0,1.8-.3,2.6-1Z"/>
    <path class="st0" d="M41.9,43.7v2h-3.3v10.4h-2.5v-10.4h-3.3v-2h9.1Z"/>
  </g>
</svg>